<mxfile host="app.diagrams.net" agent="Mozilla/5.0 (Windows NT 10.0; Win64; x64) AppleWebKit/537.36 (KHTML, like Gecko) Chrome/131.0.0.0 Safari/537.36" version="25.0.3" pages="5">
  <diagram id="MZ7-khWXGTLnNqfyCAu-" name="D Casos de Uso">
    <mxGraphModel dx="1886" dy="818" grid="1" gridSize="10" guides="1" tooltips="1" connect="1" arrows="1" fold="1" page="1" pageScale="1" pageWidth="827" pageHeight="1169" math="0" shadow="0">
      <root>
        <mxCell id="0" />
        <mxCell id="1" parent="0" />
        <mxCell id="Y-OAlsQNqxAAzAgjOOmE-13" style="rounded=0;orthogonalLoop=1;jettySize=auto;html=1;exitX=1;exitY=0.3333333333333333;exitDx=0;exitDy=0;exitPerimeter=0;entryX=0;entryY=0.5;entryDx=0;entryDy=0;endArrow=none;endFill=0;" parent="1" source="Y-OAlsQNqxAAzAgjOOmE-1" target="Y-OAlsQNqxAAzAgjOOmE-3" edge="1">
          <mxGeometry relative="1" as="geometry" />
        </mxCell>
        <mxCell id="Y-OAlsQNqxAAzAgjOOmE-14" style="rounded=0;orthogonalLoop=1;jettySize=auto;html=1;exitX=1;exitY=0.3333333333333333;exitDx=0;exitDy=0;exitPerimeter=0;entryX=0;entryY=0.5;entryDx=0;entryDy=0;endArrow=none;endFill=0;" parent="1" source="Y-OAlsQNqxAAzAgjOOmE-1" target="Y-OAlsQNqxAAzAgjOOmE-4" edge="1">
          <mxGeometry relative="1" as="geometry" />
        </mxCell>
        <mxCell id="Y-OAlsQNqxAAzAgjOOmE-15" style="rounded=0;orthogonalLoop=1;jettySize=auto;html=1;exitX=1;exitY=0.3333333333333333;exitDx=0;exitDy=0;exitPerimeter=0;entryX=0;entryY=0.5;entryDx=0;entryDy=0;endArrow=none;endFill=0;" parent="1" source="Y-OAlsQNqxAAzAgjOOmE-1" target="Y-OAlsQNqxAAzAgjOOmE-5" edge="1">
          <mxGeometry relative="1" as="geometry" />
        </mxCell>
        <mxCell id="Y-OAlsQNqxAAzAgjOOmE-16" style="rounded=0;orthogonalLoop=1;jettySize=auto;html=1;exitX=1;exitY=0.3333333333333333;exitDx=0;exitDy=0;exitPerimeter=0;entryX=0;entryY=0.5;entryDx=0;entryDy=0;endArrow=none;endFill=0;" parent="1" source="Y-OAlsQNqxAAzAgjOOmE-1" target="Y-OAlsQNqxAAzAgjOOmE-6" edge="1">
          <mxGeometry relative="1" as="geometry" />
        </mxCell>
        <mxCell id="Y-OAlsQNqxAAzAgjOOmE-17" style="rounded=0;orthogonalLoop=1;jettySize=auto;html=1;exitX=1;exitY=0.3333333333333333;exitDx=0;exitDy=0;exitPerimeter=0;entryX=0;entryY=0.5;entryDx=0;entryDy=0;endArrow=none;endFill=0;" parent="1" source="Y-OAlsQNqxAAzAgjOOmE-1" target="Y-OAlsQNqxAAzAgjOOmE-7" edge="1">
          <mxGeometry relative="1" as="geometry" />
        </mxCell>
        <mxCell id="Y-OAlsQNqxAAzAgjOOmE-18" style="rounded=0;orthogonalLoop=1;jettySize=auto;html=1;exitX=1;exitY=0.3333333333333333;exitDx=0;exitDy=0;exitPerimeter=0;entryX=0;entryY=0.5;entryDx=0;entryDy=0;endArrow=none;endFill=0;" parent="1" source="Y-OAlsQNqxAAzAgjOOmE-1" target="Y-OAlsQNqxAAzAgjOOmE-8" edge="1">
          <mxGeometry relative="1" as="geometry" />
        </mxCell>
        <mxCell id="Y-OAlsQNqxAAzAgjOOmE-19" style="rounded=0;orthogonalLoop=1;jettySize=auto;html=1;exitX=1;exitY=0.3333333333333333;exitDx=0;exitDy=0;exitPerimeter=0;entryX=0;entryY=0.5;entryDx=0;entryDy=0;endArrow=none;endFill=0;" parent="1" source="Y-OAlsQNqxAAzAgjOOmE-1" target="Y-OAlsQNqxAAzAgjOOmE-9" edge="1">
          <mxGeometry relative="1" as="geometry" />
        </mxCell>
        <mxCell id="Y-OAlsQNqxAAzAgjOOmE-20" style="rounded=0;orthogonalLoop=1;jettySize=auto;html=1;exitX=1;exitY=0.3333333333333333;exitDx=0;exitDy=0;exitPerimeter=0;entryX=0;entryY=0.5;entryDx=0;entryDy=0;endArrow=none;endFill=0;" parent="1" source="Y-OAlsQNqxAAzAgjOOmE-1" target="Y-OAlsQNqxAAzAgjOOmE-10" edge="1">
          <mxGeometry relative="1" as="geometry" />
        </mxCell>
        <mxCell id="Y-OAlsQNqxAAzAgjOOmE-21" style="rounded=0;orthogonalLoop=1;jettySize=auto;html=1;exitX=1;exitY=0.3333333333333333;exitDx=0;exitDy=0;exitPerimeter=0;entryX=0;entryY=0.5;entryDx=0;entryDy=0;endArrow=none;endFill=0;" parent="1" source="Y-OAlsQNqxAAzAgjOOmE-1" target="Y-OAlsQNqxAAzAgjOOmE-11" edge="1">
          <mxGeometry relative="1" as="geometry" />
        </mxCell>
        <mxCell id="Y-OAlsQNqxAAzAgjOOmE-22" style="rounded=0;orthogonalLoop=1;jettySize=auto;html=1;exitX=1;exitY=0.3333333333333333;exitDx=0;exitDy=0;exitPerimeter=0;entryX=0;entryY=0.5;entryDx=0;entryDy=0;endArrow=none;endFill=0;" parent="1" source="Y-OAlsQNqxAAzAgjOOmE-1" target="Y-OAlsQNqxAAzAgjOOmE-12" edge="1">
          <mxGeometry relative="1" as="geometry" />
        </mxCell>
        <mxCell id="OW62OcU6xMIK5NGNJd8I-1" style="rounded=0;orthogonalLoop=1;jettySize=auto;html=1;exitX=1;exitY=0.3333333333333333;exitDx=0;exitDy=0;exitPerimeter=0;entryX=0;entryY=0.5;entryDx=0;entryDy=0;endArrow=none;endFill=0;" edge="1" parent="1" source="Y-OAlsQNqxAAzAgjOOmE-1" target="zkJEls2_NgdNEzRgcyOW-1">
          <mxGeometry relative="1" as="geometry" />
        </mxCell>
        <mxCell id="OW62OcU6xMIK5NGNJd8I-2" style="rounded=0;orthogonalLoop=1;jettySize=auto;html=1;exitX=1;exitY=0.3333333333333333;exitDx=0;exitDy=0;exitPerimeter=0;entryX=0;entryY=0.5;entryDx=0;entryDy=0;endArrow=none;endFill=0;" edge="1" parent="1" source="Y-OAlsQNqxAAzAgjOOmE-1" target="zkJEls2_NgdNEzRgcyOW-2">
          <mxGeometry relative="1" as="geometry" />
        </mxCell>
        <mxCell id="OW62OcU6xMIK5NGNJd8I-3" style="rounded=0;orthogonalLoop=1;jettySize=auto;html=1;exitX=1;exitY=0.3333333333333333;exitDx=0;exitDy=0;exitPerimeter=0;entryX=0;entryY=0.5;entryDx=0;entryDy=0;endArrow=none;endFill=0;" edge="1" parent="1" source="Y-OAlsQNqxAAzAgjOOmE-1" target="zkJEls2_NgdNEzRgcyOW-3">
          <mxGeometry relative="1" as="geometry" />
        </mxCell>
        <mxCell id="Y-OAlsQNqxAAzAgjOOmE-1" value="Admin" style="shape=umlActor;verticalLabelPosition=bottom;verticalAlign=top;html=1;outlineConnect=0;" parent="1" vertex="1">
          <mxGeometry x="234" y="570" width="30" height="60" as="geometry" />
        </mxCell>
        <mxCell id="Y-OAlsQNqxAAzAgjOOmE-3" value="01 Validar admin" style="ellipse;whiteSpace=wrap;html=1;" parent="1" vertex="1">
          <mxGeometry x="474" y="120" width="120" height="80" as="geometry" />
        </mxCell>
        <mxCell id="Y-OAlsQNqxAAzAgjOOmE-4" value="02 Cargar inventario" style="ellipse;whiteSpace=wrap;html=1;" parent="1" vertex="1">
          <mxGeometry x="474" y="200" width="120" height="80" as="geometry" />
        </mxCell>
        <mxCell id="Y-OAlsQNqxAAzAgjOOmE-5" value="03 Cargar prestatario" style="ellipse;whiteSpace=wrap;html=1;" parent="1" vertex="1">
          <mxGeometry x="474" y="280" width="120" height="80" as="geometry" />
        </mxCell>
        <mxCell id="Y-OAlsQNqxAAzAgjOOmE-6" value="04 Cargar prestamo" style="ellipse;whiteSpace=wrap;html=1;" parent="1" vertex="1">
          <mxGeometry x="474" y="360" width="120" height="80" as="geometry" />
        </mxCell>
        <mxCell id="Y-OAlsQNqxAAzAgjOOmE-7" value="05 Actualizar inventario" style="ellipse;whiteSpace=wrap;html=1;" parent="1" vertex="1">
          <mxGeometry x="474" y="440" width="120" height="80" as="geometry" />
        </mxCell>
        <mxCell id="Y-OAlsQNqxAAzAgjOOmE-8" value="06 Actualizar prestatario" style="ellipse;whiteSpace=wrap;html=1;" parent="1" vertex="1">
          <mxGeometry x="474" y="520" width="120" height="80" as="geometry" />
        </mxCell>
        <mxCell id="Y-OAlsQNqxAAzAgjOOmE-9" value="07 Actualizar prestamo" style="ellipse;whiteSpace=wrap;html=1;" parent="1" vertex="1">
          <mxGeometry x="474" y="600" width="120" height="80" as="geometry" />
        </mxCell>
        <mxCell id="Y-OAlsQNqxAAzAgjOOmE-10" value="08 Listar inventario" style="ellipse;whiteSpace=wrap;html=1;" parent="1" vertex="1">
          <mxGeometry x="474" y="680" width="120" height="80" as="geometry" />
        </mxCell>
        <mxCell id="Y-OAlsQNqxAAzAgjOOmE-11" value="09 Listar Prestatarios" style="ellipse;whiteSpace=wrap;html=1;" parent="1" vertex="1">
          <mxGeometry x="474" y="760" width="120" height="80" as="geometry" />
        </mxCell>
        <mxCell id="Y-OAlsQNqxAAzAgjOOmE-12" value="10 Listar Prestamos" style="ellipse;whiteSpace=wrap;html=1;" parent="1" vertex="1">
          <mxGeometry x="474" y="840" width="120" height="80" as="geometry" />
        </mxCell>
        <mxCell id="zkJEls2_NgdNEzRgcyOW-1" value="11 BajaLogica inventario" style="ellipse;whiteSpace=wrap;html=1;" vertex="1" parent="1">
          <mxGeometry x="474" y="920" width="120" height="80" as="geometry" />
        </mxCell>
        <mxCell id="zkJEls2_NgdNEzRgcyOW-2" value="12 BajaLogica Prestatarios" style="ellipse;whiteSpace=wrap;html=1;" vertex="1" parent="1">
          <mxGeometry x="474" y="1000" width="120" height="80" as="geometry" />
        </mxCell>
        <mxCell id="zkJEls2_NgdNEzRgcyOW-3" value="13 BajaLogica Prestamos" style="ellipse;whiteSpace=wrap;html=1;" vertex="1" parent="1">
          <mxGeometry x="474" y="1080" width="120" height="80" as="geometry" />
        </mxCell>
        <mxCell id="OW62OcU6xMIK5NGNJd8I-4" value="&lt;font style=&quot;font-size: 24px;&quot;&gt;&lt;b&gt;Diagrama de Casos de Uso&lt;/b&gt;&lt;/font&gt;" style="text;html=1;align=center;verticalAlign=middle;whiteSpace=wrap;rounded=0;" vertex="1" parent="1">
          <mxGeometry x="254" y="50" width="320" height="30" as="geometry" />
        </mxCell>
      </root>
    </mxGraphModel>
  </diagram>
  <diagram id="W5zZCj6sBQ2dFw1aLpJe" name="D de Clases">
    <mxGraphModel dx="1886" dy="818" grid="1" gridSize="10" guides="1" tooltips="1" connect="1" arrows="1" fold="1" page="1" pageScale="1" pageWidth="827" pageHeight="1169" math="0" shadow="0">
      <root>
        <mxCell id="0" />
        <mxCell id="1" parent="0" />
        <mxCell id="9qz7aFgkGhJzENlvyquL-1" value="1.n" style="edgeStyle=orthogonalEdgeStyle;rounded=0;orthogonalLoop=1;jettySize=auto;html=1;exitX=0;exitY=0.25;exitDx=0;exitDy=0;entryX=0;entryY=0.25;entryDx=0;entryDy=0;endArrow=diamondThin;endFill=1;" edge="1" parent="1" source="FlNZyjOKNOgKgQpu8O2c-5" target="FlNZyjOKNOgKgQpu8O2c-6">
          <mxGeometry relative="1" as="geometry" />
        </mxCell>
        <mxCell id="FlNZyjOKNOgKgQpu8O2c-5" value="&lt;p style=&quot;margin:0px;margin-top:4px;text-align:center;&quot;&gt;&lt;i&gt;&amp;lt;&amp;lt;Enumeracion&amp;gt;&amp;gt;&lt;/i&gt;&lt;br&gt;&lt;b&gt;ERol&lt;/b&gt;&lt;/p&gt;&lt;hr size=&quot;1&quot; style=&quot;border-style:solid;&quot;&gt;&lt;p style=&quot;margin:0px;margin-left:4px;&quot;&gt;+ ADMIN: String&lt;br&gt;+ PRESTATARIO: String&lt;/p&gt;&lt;hr size=&quot;1&quot; style=&quot;border-style:solid;&quot;&gt;&lt;p style=&quot;margin:0px;margin-left:4px;&quot;&gt;&lt;br&gt;&lt;/p&gt;" style="verticalAlign=top;align=left;overflow=fill;html=1;whiteSpace=wrap;" vertex="1" parent="1">
          <mxGeometry x="374" y="940" width="136" height="90" as="geometry" />
        </mxCell>
        <mxCell id="FlNZyjOKNOgKgQpu8O2c-6" value="&lt;p style=&quot;margin:0px;margin-top:4px;text-align:center;&quot;&gt;&lt;b&gt;Usuario&lt;/b&gt;&lt;/p&gt;&lt;hr size=&quot;1&quot; style=&quot;border-style:solid;&quot;&gt;&lt;p style=&quot;margin:0px;margin-left:4px;&quot;&gt;- nombreUsuario: String&lt;/p&gt;&lt;p style=&quot;margin:0px;margin-left:4px;&quot;&gt;- clave: String&lt;/p&gt;&lt;p style=&quot;margin:0px;margin-left:4px;&quot;&gt;- nombre: String&lt;/p&gt;&lt;p style=&quot;margin:0px;margin-left:4px;&quot;&gt;- apellido: String&lt;/p&gt;&lt;p style=&quot;margin:0px;margin-left:4px;&quot;&gt;- rol: ERrol&lt;/p&gt;&lt;p style=&quot;margin:0px;margin-left:4px;&quot;&gt;- foto: String&lt;/p&gt;&lt;p style=&quot;margin:0px;margin-left:4px;&quot;&gt;- estado: Boolean&lt;/p&gt;&lt;hr size=&quot;1&quot; style=&quot;border-style:solid;&quot;&gt;&lt;p style=&quot;margin:0px;margin-left:4px;&quot;&gt;+ Usuario(): Void&lt;/p&gt;&lt;p style=&quot;margin:0px;margin-left:4px;&quot;&gt;+ getNombreUsuario(): String&lt;/p&gt;&lt;p style=&quot;margin:0px;margin-left:4px;&quot;&gt;+ setNombreUsuario(String): Void&lt;/p&gt;&lt;p style=&quot;margin:0px;margin-left:4px;&quot;&gt;+ getClave(): String&lt;/p&gt;&lt;p style=&quot;margin:0px;margin-left:4px;&quot;&gt;+ setClave(String): Void&lt;/p&gt;&lt;p style=&quot;margin: 0px 0px 0px 4px;&quot;&gt;+ getNombre(): String&lt;/p&gt;&lt;p style=&quot;margin: 0px 0px 0px 4px;&quot;&gt;+ setNombre(): String(String): Void&lt;/p&gt;&lt;p style=&quot;margin: 0px 0px 0px 4px;&quot;&gt;+ getApellido(): String&lt;/p&gt;&lt;p style=&quot;margin: 0px 0px 0px 4px;&quot;&gt;+ setApellido(String): Void&lt;/p&gt;&lt;p style=&quot;margin: 0px 0px 0px 4px;&quot;&gt;+ getRol(): ERol&lt;/p&gt;&lt;p style=&quot;margin: 0px 0px 0px 4px;&quot;&gt;+ setRol(ERol): Void&lt;/p&gt;&lt;p style=&quot;margin: 0px 0px 0px 4px;&quot;&gt;+ getFoto(): String&lt;/p&gt;&lt;p style=&quot;margin: 0px 0px 0px 4px;&quot;&gt;+ setFoto(String): Void&lt;/p&gt;&lt;p style=&quot;margin: 0px 0px 0px 4px;&quot;&gt;+ getEstado(): Boolean&lt;/p&gt;&lt;p style=&quot;margin: 0px 0px 0px 4px;&quot;&gt;+ setEstado(Boolean): Void&lt;/p&gt;&lt;p style=&quot;margin: 0px 0px 0px 4px;&quot;&gt;+ toString(): Void&lt;/p&gt;" style="verticalAlign=top;align=left;overflow=fill;html=1;whiteSpace=wrap;" vertex="1" parent="1">
          <mxGeometry x="374" y="540" width="190" height="380" as="geometry" />
        </mxCell>
        <mxCell id="j32qSebcLfI8hRwinpnu-1" value="&lt;p style=&quot;margin:0px;margin-top:4px;text-align:center;&quot;&gt;&lt;b&gt;Prestamo&lt;/b&gt;&lt;/p&gt;&lt;hr size=&quot;1&quot; style=&quot;border-style:solid;&quot;&gt;&lt;p style=&quot;margin:0px;margin-left:4px;&quot;&gt;- id: Long&lt;/p&gt;&lt;p style=&quot;margin:0px;margin-left:4px;&quot;&gt;- fechaSolicitud: String&lt;/p&gt;&lt;p style=&quot;margin:0px;margin-left:4px;&quot;&gt;- fechaDevolucion: String&lt;/p&gt;&lt;p style=&quot;margin:0px;margin-left:4px;&quot;&gt;- estadoPrestamo: EEstadoPrestamo&lt;/p&gt;&lt;p style=&quot;margin:0px;margin-left:4px;&quot;&gt;- estado: Boolean&lt;/p&gt;&lt;p style=&quot;margin:0px;margin-left:4px;&quot;&gt;- id_inventario: Inventario&lt;/p&gt;&lt;p style=&quot;margin:0px;margin-left:4px;&quot;&gt;- id_prestatario: Prestatario&lt;/p&gt;&lt;hr size=&quot;1&quot; style=&quot;border-style:solid;&quot;&gt;&lt;p style=&quot;margin:0px;margin-left:4px;&quot;&gt;+ Prestamo(): Void&lt;/p&gt;&lt;p style=&quot;margin:0px;margin-left:4px;&quot;&gt;+ getId(): Long&lt;/p&gt;&lt;p style=&quot;margin:0px;margin-left:4px;&quot;&gt;+ setId(Long): Void&lt;/p&gt;&lt;p style=&quot;margin:0px;margin-left:4px;&quot;&gt;+ getFechaSolicitud(): String&lt;/p&gt;&lt;p style=&quot;margin:0px;margin-left:4px;&quot;&gt;+ setFechaSolicitud(String): Void&lt;/p&gt;&lt;p style=&quot;margin:0px;margin-left:4px;&quot;&gt;+ getFechaDevolucion(): String&lt;/p&gt;&lt;p style=&quot;margin:0px;margin-left:4px;&quot;&gt;+ setFechaDevolucion(String): Void&lt;/p&gt;&lt;p style=&quot;margin:0px;margin-left:4px;&quot;&gt;+ getEstadoPrestamo(): EEstadoPrestamo&lt;/p&gt;&lt;p style=&quot;margin:0px;margin-left:4px;&quot;&gt;+ setEstadoPrestamo(EEstadoPrestamo): Void&lt;/p&gt;&lt;p style=&quot;margin:0px;margin-left:4px;&quot;&gt;+ getEstado(): Boolean&lt;/p&gt;&lt;p style=&quot;margin:0px;margin-left:4px;&quot;&gt;+ setEstado(Boolean): Void&lt;/p&gt;&lt;p style=&quot;margin:0px;margin-left:4px;&quot;&gt;+ getId_inventario(): Inventario&lt;/p&gt;&lt;p style=&quot;margin:0px;margin-left:4px;&quot;&gt;+ setId_inventario(Inventario): Void&lt;/p&gt;&lt;p style=&quot;margin: 0px 0px 0px 4px;&quot;&gt;+ getId_prestatario(): Prestatario&lt;/p&gt;&lt;p style=&quot;margin: 0px 0px 0px 4px;&quot;&gt;+ setId_prestatario(Prestatario): Void&lt;/p&gt;&lt;p style=&quot;margin: 0px 0px 0px 4px;&quot;&gt;+ toString(): Void&lt;/p&gt;" style="verticalAlign=top;align=left;overflow=fill;html=1;whiteSpace=wrap;" vertex="1" parent="1">
          <mxGeometry x="400" y="140" width="260" height="380" as="geometry" />
        </mxCell>
        <mxCell id="j32qSebcLfI8hRwinpnu-2" value="&lt;p style=&quot;margin:0px;margin-top:4px;text-align:center;&quot;&gt;&lt;b&gt;Inventario&lt;/b&gt;&lt;/p&gt;&lt;hr size=&quot;1&quot; style=&quot;border-style:solid;&quot;&gt;&lt;p style=&quot;margin:0px;margin-left:4px;&quot;&gt;- id: Long&lt;/p&gt;&lt;p style=&quot;margin:0px;margin-left:4px;&quot;&gt;- nombre: String&lt;/p&gt;&lt;p style=&quot;margin:0px;margin-left:4px;&quot;&gt;- descripcion: String&lt;/p&gt;&lt;p style=&quot;margin:0px;margin-left:4px;&quot;&gt;- ubicacion: EUbicacion&lt;/p&gt;&lt;p style=&quot;margin:0px;margin-left:4px;&quot;&gt;- foto: String&lt;/p&gt;&lt;p style=&quot;margin:0px;margin-left:4px;&quot;&gt;- estado: Boolean&lt;/p&gt;&lt;hr size=&quot;1&quot; style=&quot;border-style:solid;&quot;&gt;&lt;p style=&quot;margin:0px;margin-left:4px;&quot;&gt;+ Inventario(): Void&lt;/p&gt;&lt;p style=&quot;margin:0px;margin-left:4px;&quot;&gt;+ getId(): Long&lt;/p&gt;&lt;p style=&quot;margin:0px;margin-left:4px;&quot;&gt;+ setId(Long): Void&lt;/p&gt;&lt;p style=&quot;margin:0px;margin-left:4px;&quot;&gt;+ getNombre(): String&lt;/p&gt;&lt;p style=&quot;margin:0px;margin-left:4px;&quot;&gt;+ setNombre(String): Void&lt;/p&gt;&lt;p style=&quot;margin:0px;margin-left:4px;&quot;&gt;+ getDescripcion(): String&lt;/p&gt;&lt;p style=&quot;margin:0px;margin-left:4px;&quot;&gt;+ setDescripcion(String): Void&lt;/p&gt;&lt;p style=&quot;margin:0px;margin-left:4px;&quot;&gt;+ getUbicacion(): EUbicacion&lt;/p&gt;&lt;p style=&quot;margin:0px;margin-left:4px;&quot;&gt;+ setUbicacion(EUbicacion): Void&lt;/p&gt;&lt;p style=&quot;margin:0px;margin-left:4px;&quot;&gt;+ getFoto(): String&lt;/p&gt;&lt;p style=&quot;margin:0px;margin-left:4px;&quot;&gt;+ setFoto(String): Void&lt;/p&gt;&lt;p style=&quot;margin:0px;margin-left:4px;&quot;&gt;+ getEstado(): Boolean&lt;/p&gt;&lt;p style=&quot;margin:0px;margin-left:4px;&quot;&gt;+ setEstado(Boolean): Void&lt;/p&gt;&lt;p style=&quot;margin:0px;margin-left:4px;&quot;&gt;+ toString(): Void&lt;/p&gt;" style="verticalAlign=top;align=left;overflow=fill;html=1;whiteSpace=wrap;" vertex="1" parent="1">
          <mxGeometry x="170" y="140" width="190" height="340" as="geometry" />
        </mxCell>
        <mxCell id="9qz7aFgkGhJzENlvyquL-2" value="1.n" style="edgeStyle=orthogonalEdgeStyle;rounded=0;orthogonalLoop=1;jettySize=auto;html=1;exitX=1;exitY=0.25;exitDx=0;exitDy=0;entryX=-0.001;entryY=0.245;entryDx=0;entryDy=0;endArrow=diamondThin;endFill=1;entryPerimeter=0;" edge="1" parent="1" source="G11gnM8cP3JguVydT_1e-1" target="j32qSebcLfI8hRwinpnu-2">
          <mxGeometry relative="1" as="geometry" />
        </mxCell>
        <mxCell id="G11gnM8cP3JguVydT_1e-1" value="&lt;p style=&quot;margin:0px;margin-top:4px;text-align:center;&quot;&gt;&lt;i&gt;&amp;lt;&amp;lt;Enumeracion&amp;gt;&amp;gt;&lt;/i&gt;&lt;br&gt;&lt;b&gt;EUbicacion&lt;/b&gt;&lt;/p&gt;&lt;hr size=&quot;1&quot; style=&quot;border-style:solid;&quot;&gt;&lt;p style=&quot;margin:0px;margin-left:4px;&quot;&gt;+ DEPOSITO: String&lt;br&gt;+ PRESTADO: String&lt;/p&gt;&lt;hr size=&quot;1&quot; style=&quot;border-style:solid;&quot;&gt;&lt;p style=&quot;margin:0px;margin-left:4px;&quot;&gt;&lt;br&gt;&lt;/p&gt;" style="verticalAlign=top;align=left;overflow=fill;html=1;whiteSpace=wrap;" vertex="1" parent="1">
          <mxGeometry x="10" y="140" width="120" height="90" as="geometry" />
        </mxCell>
        <mxCell id="fSIG_bsAvpNxvKOvQdu_-1" value="&lt;p style=&quot;margin:0px;margin-top:4px;text-align:center;&quot;&gt;&lt;i&gt;&amp;lt;&amp;lt;Enumeracion&amp;gt;&amp;gt;&lt;/i&gt;&lt;br&gt;&lt;b&gt;EEstadoPrestamo&lt;/b&gt;&lt;/p&gt;&lt;hr size=&quot;1&quot; style=&quot;border-style:solid;&quot;&gt;&lt;p style=&quot;margin:0px;margin-left:4px;&quot;&gt;+ ACEPTADO: String&lt;br&gt;+ CONCLUIDO: String&lt;/p&gt;&lt;hr size=&quot;1&quot; style=&quot;border-style:solid;&quot;&gt;&lt;p style=&quot;margin:0px;margin-left:4px;&quot;&gt;&lt;br&gt;&lt;/p&gt;" style="verticalAlign=top;align=left;overflow=fill;html=1;whiteSpace=wrap;" vertex="1" parent="1">
          <mxGeometry x="690" y="140" width="130" height="90" as="geometry" />
        </mxCell>
        <mxCell id="ETsBqOxFfqUrVVUmXeQw-27" value="&lt;p style=&quot;margin:0px;margin-top:4px;text-align:center;&quot;&gt;&lt;b&gt;Admin&lt;/b&gt;&lt;/p&gt;&lt;hr size=&quot;1&quot; style=&quot;border-style:solid;&quot;&gt;&lt;p style=&quot;margin:0px;margin-left:4px;&quot;&gt;&lt;span style=&quot;background-color: initial;&quot;&gt;- id: Long&lt;/span&gt;&lt;/p&gt;&lt;p style=&quot;margin:0px;margin-left:4px;&quot;&gt;&lt;span style=&quot;background-color: initial;&quot;&gt;- estado: Boolean&lt;/span&gt;&lt;/p&gt;&lt;p style=&quot;margin:0px;margin-left:4px;&quot;&gt;&lt;span style=&quot;background-color: initial;&quot;&gt;- id_usuario: Usuario&lt;/span&gt;&lt;/p&gt;&lt;hr size=&quot;1&quot; style=&quot;border-style:solid;&quot;&gt;&lt;p style=&quot;margin:0px;margin-left:4px;&quot;&gt;+ Admin(): Void&lt;/p&gt;&lt;p style=&quot;margin:0px;margin-left:4px;&quot;&gt;+ getId(): Long&lt;/p&gt;&lt;p style=&quot;margin:0px;margin-left:4px;&quot;&gt;+ setId(Long): Void&lt;/p&gt;&lt;p style=&quot;margin:0px;margin-left:4px;&quot;&gt;+ getEstado(): Boolean&lt;/p&gt;&lt;p style=&quot;margin:0px;margin-left:4px;&quot;&gt;+ setEstado(): Boolean&lt;/p&gt;&lt;p style=&quot;margin:0px;margin-left:4px;&quot;&gt;+ getId_usuario(): Usuario&lt;/p&gt;&lt;p style=&quot;margin:0px;margin-left:4px;&quot;&gt;+ setId_usuario(Usuario): Void&lt;/p&gt;&lt;p style=&quot;margin:0px;margin-left:4px;&quot;&gt;+ login(String,String,Context): Usuario&lt;/p&gt;&lt;p style=&quot;margin:0px;margin-left:4px;&quot;&gt;+ logout(String,Context):Void&lt;/p&gt;&lt;p style=&quot;margin:0px;margin-left:4px;&quot;&gt;+ cargarInventario(Inventario): Inventario&lt;/p&gt;&lt;p style=&quot;margin:0px;margin-left:4px;&quot;&gt;+ cargarPrestatario(Prestatario): Prestatario&lt;/p&gt;&lt;p style=&quot;margin:0px;margin-left:4px;&quot;&gt;+ cargarPrestamo(Prestamo): Prestamo&lt;/p&gt;&lt;p style=&quot;margin: 0px 0px 0px 4px;&quot;&gt;+ actualizarInventario(Inventario): Inventario&lt;/p&gt;&lt;p style=&quot;margin: 0px 0px 0px 4px;&quot;&gt;+ actualizarPrestatario(Prestatario): Prestatario&lt;/p&gt;&lt;p style=&quot;margin: 0px 0px 0px 4px;&quot;&gt;+ actualizarPrestamo(Prestamo): Prestamo&lt;/p&gt;&lt;p style=&quot;margin: 0px 0px 0px 4px;&quot;&gt;+ actualizarInventario(Inventario): Inventario&lt;/p&gt;&lt;p style=&quot;margin: 0px 0px 0px 4px;&quot;&gt;+ actualizarPrestatario(Prestatario): Prestatario&lt;/p&gt;&lt;p style=&quot;margin: 0px 0px 0px 4px;&quot;&gt;+ actualizarPrestamo(Prestamo): Prestamo&lt;/p&gt;&lt;p style=&quot;margin: 0px 0px 0px 4px;&quot;&gt;+ bajaLogicaInventario(Inventario): Inventario&lt;/p&gt;&lt;p style=&quot;margin: 0px 0px 0px 4px;&quot;&gt;+ bajaLogicaPrestatario(Prestatario): Prestatario&lt;/p&gt;&lt;p style=&quot;margin: 0px 0px 0px 4px;&quot;&gt;+ bajaLogicaPrestamo(Prestamo): Prestamo&lt;/p&gt;&lt;p style=&quot;margin: 0px 0px 0px 4px;&quot;&gt;+ toString(): Void&lt;/p&gt;" style="verticalAlign=top;align=left;overflow=fill;html=1;whiteSpace=wrap;" vertex="1" parent="1">
          <mxGeometry x="64" y="540" width="270" height="410" as="geometry" />
        </mxCell>
        <mxCell id="JH_JFY_WQou5JF6HPWBx-1" value="1.1" style="edgeStyle=orthogonalEdgeStyle;rounded=0;orthogonalLoop=1;jettySize=auto;html=1;entryX=0.998;entryY=0.168;entryDx=0;entryDy=0;entryPerimeter=0;endArrow=diamondThin;endFill=0;exitX=-0.001;exitY=0.105;exitDx=0;exitDy=0;exitPerimeter=0;" edge="1" parent="1" source="FlNZyjOKNOgKgQpu8O2c-6" target="ETsBqOxFfqUrVVUmXeQw-27">
          <mxGeometry relative="1" as="geometry">
            <mxPoint x="314" y="600" as="sourcePoint" />
          </mxGeometry>
        </mxCell>
        <mxCell id="JH_JFY_WQou5JF6HPWBx-2" value="&lt;p style=&quot;margin:0px;margin-top:4px;text-align:center;&quot;&gt;&lt;b&gt;Prestatario&lt;/b&gt;&lt;/p&gt;&lt;hr size=&quot;1&quot; style=&quot;border-style:solid;&quot;&gt;&lt;p style=&quot;margin:0px;margin-left:4px;&quot;&gt;&lt;span style=&quot;background-color: initial;&quot;&gt;- id: Long&lt;/span&gt;&lt;/p&gt;&lt;p style=&quot;margin:0px;margin-left:4px;&quot;&gt;&lt;span style=&quot;background-color: initial;&quot;&gt;- estado: Boolean&lt;/span&gt;&lt;/p&gt;&lt;p style=&quot;margin:0px;margin-left:4px;&quot;&gt;&lt;span style=&quot;background-color: initial;&quot;&gt;- id_usuario: Usuario&lt;/span&gt;&lt;/p&gt;&lt;hr size=&quot;1&quot; style=&quot;border-style:solid;&quot;&gt;&lt;p style=&quot;margin:0px;margin-left:4px;&quot;&gt;+ Prestatario(): Void&lt;/p&gt;&lt;p style=&quot;margin:0px;margin-left:4px;&quot;&gt;+ getId(): Long&lt;/p&gt;&lt;p style=&quot;margin:0px;margin-left:4px;&quot;&gt;+ setId(Long): Void&lt;/p&gt;&lt;p style=&quot;margin:0px;margin-left:4px;&quot;&gt;+ getEstado(): Boolean&lt;/p&gt;&lt;p style=&quot;margin:0px;margin-left:4px;&quot;&gt;+ setEstado(): Boolean&lt;/p&gt;&lt;p style=&quot;margin:0px;margin-left:4px;&quot;&gt;+ getId_usuario(): Usuario&lt;/p&gt;&lt;p style=&quot;margin:0px;margin-left:4px;&quot;&gt;+ setId_usuario(Usuario): Void&lt;/p&gt;&lt;p style=&quot;margin:0px;margin-left:4px;&quot;&gt;&lt;span style=&quot;background-color: initial;&quot;&gt;+ toString(): Void&lt;/span&gt;&lt;/p&gt;" style="verticalAlign=top;align=left;overflow=fill;html=1;whiteSpace=wrap;" vertex="1" parent="1">
          <mxGeometry x="594" y="540" width="170" height="210" as="geometry" />
        </mxCell>
        <mxCell id="JH_JFY_WQou5JF6HPWBx-3" value="1.1" style="edgeStyle=orthogonalEdgeStyle;rounded=0;orthogonalLoop=1;jettySize=auto;html=1;exitX=0.999;exitY=0.105;exitDx=0;exitDy=0;entryX=-0.001;entryY=0.325;entryDx=0;entryDy=0;entryPerimeter=0;exitPerimeter=0;endArrow=diamondThin;endFill=0;" edge="1" parent="1" source="FlNZyjOKNOgKgQpu8O2c-6" target="JH_JFY_WQou5JF6HPWBx-2">
          <mxGeometry relative="1" as="geometry" />
        </mxCell>
        <mxCell id="9qz7aFgkGhJzENlvyquL-3" value="n.1" style="edgeStyle=orthogonalEdgeStyle;rounded=0;orthogonalLoop=1;jettySize=auto;html=1;exitX=0;exitY=0.25;exitDx=0;exitDy=0;entryX=1.002;entryY=0.222;entryDx=0;entryDy=0;entryPerimeter=0;endArrow=diamondThin;endFill=1;" edge="1" parent="1" source="fSIG_bsAvpNxvKOvQdu_-1" target="j32qSebcLfI8hRwinpnu-1">
          <mxGeometry relative="1" as="geometry" />
        </mxCell>
        <mxCell id="9qz7aFgkGhJzENlvyquL-4" value="1.n" style="edgeStyle=orthogonalEdgeStyle;rounded=0;orthogonalLoop=1;jettySize=auto;html=1;exitX=1.004;exitY=0.112;exitDx=0;exitDy=0;entryX=0;entryY=0.291;entryDx=0;entryDy=0;entryPerimeter=0;exitPerimeter=0;endArrow=diamondThin;endFill=1;" edge="1" parent="1" source="j32qSebcLfI8hRwinpnu-2" target="j32qSebcLfI8hRwinpnu-1">
          <mxGeometry relative="1" as="geometry" />
        </mxCell>
        <mxCell id="9qz7aFgkGhJzENlvyquL-5" value="n.1" style="edgeStyle=orthogonalEdgeStyle;rounded=0;orthogonalLoop=1;jettySize=auto;html=1;exitX=1;exitY=0.25;exitDx=0;exitDy=0;entryX=1.002;entryY=0.341;entryDx=0;entryDy=0;entryPerimeter=0;startArrow=none;startFill=0;endArrow=diamondThin;endFill=1;" edge="1" parent="1" source="JH_JFY_WQou5JF6HPWBx-2" target="j32qSebcLfI8hRwinpnu-1">
          <mxGeometry relative="1" as="geometry" />
        </mxCell>
        <mxCell id="9qz7aFgkGhJzENlvyquL-20" value="&lt;font style=&quot;font-size: 24px;&quot;&gt;&lt;b&gt;Diagrama de Clases&lt;/b&gt;&lt;/font&gt;" style="text;html=1;align=center;verticalAlign=middle;whiteSpace=wrap;rounded=0;" vertex="1" parent="1">
          <mxGeometry x="292" y="50" width="244" height="30" as="geometry" />
        </mxCell>
      </root>
    </mxGraphModel>
  </diagram>
  <diagram id="HUWUKbYLa9Roq9n-dG6D" name="Diagrama Logico">
    <mxGraphModel dx="1520" dy="774" grid="1" gridSize="10" guides="1" tooltips="1" connect="1" arrows="1" fold="1" page="1" pageScale="1" pageWidth="827" pageHeight="1169" math="0" shadow="0">
      <root>
        <mxCell id="0" />
        <mxCell id="1" parent="0" />
        <mxCell id="Jy8knz6axiSw5Os64UzN-1" value="Usuario" style="swimlane;fontStyle=0;childLayout=stackLayout;horizontal=1;startSize=30;horizontalStack=0;resizeParent=1;resizeParentMax=0;resizeLast=0;collapsible=1;marginBottom=0;whiteSpace=wrap;html=1;" vertex="1" parent="1">
          <mxGeometry x="-488" y="400" width="130" height="240" as="geometry" />
        </mxCell>
        <mxCell id="Jy8knz6axiSw5Os64UzN-2" value="&lt;b&gt;&lt;u&gt;nombreUsuario (PK)&lt;/u&gt;&lt;/b&gt;" style="text;strokeColor=none;fillColor=none;align=left;verticalAlign=middle;spacingLeft=4;spacingRight=4;overflow=hidden;points=[[0,0.5],[1,0.5]];portConstraint=eastwest;rotatable=0;whiteSpace=wrap;html=1;" vertex="1" parent="Jy8knz6axiSw5Os64UzN-1">
          <mxGeometry y="30" width="130" height="30" as="geometry" />
        </mxCell>
        <mxCell id="Jy8knz6axiSw5Os64UzN-3" value="clave" style="text;strokeColor=none;fillColor=none;align=left;verticalAlign=middle;spacingLeft=4;spacingRight=4;overflow=hidden;points=[[0,0.5],[1,0.5]];portConstraint=eastwest;rotatable=0;whiteSpace=wrap;html=1;" vertex="1" parent="Jy8knz6axiSw5Os64UzN-1">
          <mxGeometry y="60" width="130" height="30" as="geometry" />
        </mxCell>
        <mxCell id="Jy8knz6axiSw5Os64UzN-4" value="nombre" style="text;strokeColor=none;fillColor=none;align=left;verticalAlign=middle;spacingLeft=4;spacingRight=4;overflow=hidden;points=[[0,0.5],[1,0.5]];portConstraint=eastwest;rotatable=0;whiteSpace=wrap;html=1;" vertex="1" parent="Jy8knz6axiSw5Os64UzN-1">
          <mxGeometry y="90" width="130" height="30" as="geometry" />
        </mxCell>
        <mxCell id="Jy8knz6axiSw5Os64UzN-5" value="apellido" style="text;strokeColor=none;fillColor=none;align=left;verticalAlign=middle;spacingLeft=4;spacingRight=4;overflow=hidden;points=[[0,0.5],[1,0.5]];portConstraint=eastwest;rotatable=0;whiteSpace=wrap;html=1;" vertex="1" parent="Jy8knz6axiSw5Os64UzN-1">
          <mxGeometry y="120" width="130" height="30" as="geometry" />
        </mxCell>
        <mxCell id="Jy8knz6axiSw5Os64UzN-6" value="rol" style="text;strokeColor=none;fillColor=none;align=left;verticalAlign=middle;spacingLeft=4;spacingRight=4;overflow=hidden;points=[[0,0.5],[1,0.5]];portConstraint=eastwest;rotatable=0;whiteSpace=wrap;html=1;" vertex="1" parent="Jy8knz6axiSw5Os64UzN-1">
          <mxGeometry y="150" width="130" height="30" as="geometry" />
        </mxCell>
        <mxCell id="Jy8knz6axiSw5Os64UzN-7" value="foto" style="text;strokeColor=none;fillColor=none;align=left;verticalAlign=middle;spacingLeft=4;spacingRight=4;overflow=hidden;points=[[0,0.5],[1,0.5]];portConstraint=eastwest;rotatable=0;whiteSpace=wrap;html=1;" vertex="1" parent="Jy8knz6axiSw5Os64UzN-1">
          <mxGeometry y="180" width="130" height="30" as="geometry" />
        </mxCell>
        <mxCell id="Jy8knz6axiSw5Os64UzN-8" value="estado" style="text;strokeColor=none;fillColor=none;align=left;verticalAlign=middle;spacingLeft=4;spacingRight=4;overflow=hidden;points=[[0,0.5],[1,0.5]];portConstraint=eastwest;rotatable=0;whiteSpace=wrap;html=1;" vertex="1" parent="Jy8knz6axiSw5Os64UzN-1">
          <mxGeometry y="210" width="130" height="30" as="geometry" />
        </mxCell>
        <mxCell id="Jy8knz6axiSw5Os64UzN-9" value="Inventario" style="swimlane;fontStyle=0;childLayout=stackLayout;horizontal=1;startSize=30;horizontalStack=0;resizeParent=1;resizeParentMax=0;resizeLast=0;collapsible=1;marginBottom=0;whiteSpace=wrap;html=1;" vertex="1" parent="1">
          <mxGeometry x="-463" y="120" width="80" height="210" as="geometry" />
        </mxCell>
        <mxCell id="Jy8knz6axiSw5Os64UzN-10" value="&lt;u&gt;&lt;b&gt;id (PK)&lt;/b&gt;&lt;/u&gt;" style="text;strokeColor=none;fillColor=none;align=left;verticalAlign=middle;spacingLeft=4;spacingRight=4;overflow=hidden;points=[[0,0.5],[1,0.5]];portConstraint=eastwest;rotatable=0;whiteSpace=wrap;html=1;" vertex="1" parent="Jy8knz6axiSw5Os64UzN-9">
          <mxGeometry y="30" width="80" height="30" as="geometry" />
        </mxCell>
        <mxCell id="Jy8knz6axiSw5Os64UzN-11" value="nombre" style="text;strokeColor=none;fillColor=none;align=left;verticalAlign=middle;spacingLeft=4;spacingRight=4;overflow=hidden;points=[[0,0.5],[1,0.5]];portConstraint=eastwest;rotatable=0;whiteSpace=wrap;html=1;" vertex="1" parent="Jy8knz6axiSw5Os64UzN-9">
          <mxGeometry y="60" width="80" height="30" as="geometry" />
        </mxCell>
        <mxCell id="Jy8knz6axiSw5Os64UzN-12" value="descripcion" style="text;strokeColor=none;fillColor=none;align=left;verticalAlign=middle;spacingLeft=4;spacingRight=4;overflow=hidden;points=[[0,0.5],[1,0.5]];portConstraint=eastwest;rotatable=0;whiteSpace=wrap;html=1;" vertex="1" parent="Jy8knz6axiSw5Os64UzN-9">
          <mxGeometry y="90" width="80" height="30" as="geometry" />
        </mxCell>
        <mxCell id="Jy8knz6axiSw5Os64UzN-13" value="ubicacion" style="text;strokeColor=none;fillColor=none;align=left;verticalAlign=middle;spacingLeft=4;spacingRight=4;overflow=hidden;points=[[0,0.5],[1,0.5]];portConstraint=eastwest;rotatable=0;whiteSpace=wrap;html=1;" vertex="1" parent="Jy8knz6axiSw5Os64UzN-9">
          <mxGeometry y="120" width="80" height="30" as="geometry" />
        </mxCell>
        <mxCell id="Jy8knz6axiSw5Os64UzN-14" value="foto" style="text;strokeColor=none;fillColor=none;align=left;verticalAlign=middle;spacingLeft=4;spacingRight=4;overflow=hidden;points=[[0,0.5],[1,0.5]];portConstraint=eastwest;rotatable=0;whiteSpace=wrap;html=1;" vertex="1" parent="Jy8knz6axiSw5Os64UzN-9">
          <mxGeometry y="150" width="80" height="30" as="geometry" />
        </mxCell>
        <mxCell id="Jy8knz6axiSw5Os64UzN-15" value="estado" style="text;strokeColor=none;fillColor=none;align=left;verticalAlign=middle;spacingLeft=4;spacingRight=4;overflow=hidden;points=[[0,0.5],[1,0.5]];portConstraint=eastwest;rotatable=0;whiteSpace=wrap;html=1;" vertex="1" parent="Jy8knz6axiSw5Os64UzN-9">
          <mxGeometry y="180" width="80" height="30" as="geometry" />
        </mxCell>
        <mxCell id="Jy8knz6axiSw5Os64UzN-16" value="Prestamo" style="swimlane;fontStyle=0;childLayout=stackLayout;horizontal=1;startSize=30;horizontalStack=0;resizeParent=1;resizeParentMax=0;resizeLast=0;collapsible=1;marginBottom=0;whiteSpace=wrap;html=1;" vertex="1" parent="1">
          <mxGeometry x="-336" y="120" width="118" height="240" as="geometry" />
        </mxCell>
        <mxCell id="Jy8knz6axiSw5Os64UzN-17" value="&lt;u&gt;&lt;b&gt;id (PK)&lt;/b&gt;&lt;/u&gt;" style="text;strokeColor=none;fillColor=none;align=left;verticalAlign=middle;spacingLeft=4;spacingRight=4;overflow=hidden;points=[[0,0.5],[1,0.5]];portConstraint=eastwest;rotatable=0;whiteSpace=wrap;html=1;" vertex="1" parent="Jy8knz6axiSw5Os64UzN-16">
          <mxGeometry y="30" width="118" height="30" as="geometry" />
        </mxCell>
        <mxCell id="Jy8knz6axiSw5Os64UzN-18" value="fechaSolicitud" style="text;strokeColor=none;fillColor=none;align=left;verticalAlign=middle;spacingLeft=4;spacingRight=4;overflow=hidden;points=[[0,0.5],[1,0.5]];portConstraint=eastwest;rotatable=0;whiteSpace=wrap;html=1;" vertex="1" parent="Jy8knz6axiSw5Os64UzN-16">
          <mxGeometry y="60" width="118" height="30" as="geometry" />
        </mxCell>
        <mxCell id="Jy8knz6axiSw5Os64UzN-19" value="fechaDevolucion" style="text;strokeColor=none;fillColor=none;align=left;verticalAlign=middle;spacingLeft=4;spacingRight=4;overflow=hidden;points=[[0,0.5],[1,0.5]];portConstraint=eastwest;rotatable=0;whiteSpace=wrap;html=1;" vertex="1" parent="Jy8knz6axiSw5Os64UzN-16">
          <mxGeometry y="90" width="118" height="30" as="geometry" />
        </mxCell>
        <mxCell id="Jy8knz6axiSw5Os64UzN-20" value="estadoPrestamo" style="text;strokeColor=none;fillColor=none;align=left;verticalAlign=middle;spacingLeft=4;spacingRight=4;overflow=hidden;points=[[0,0.5],[1,0.5]];portConstraint=eastwest;rotatable=0;whiteSpace=wrap;html=1;" vertex="1" parent="Jy8knz6axiSw5Os64UzN-16">
          <mxGeometry y="120" width="118" height="30" as="geometry" />
        </mxCell>
        <mxCell id="Jy8knz6axiSw5Os64UzN-21" value="estado" style="text;strokeColor=none;fillColor=none;align=left;verticalAlign=middle;spacingLeft=4;spacingRight=4;overflow=hidden;points=[[0,0.5],[1,0.5]];portConstraint=eastwest;rotatable=0;whiteSpace=wrap;html=1;" vertex="1" parent="Jy8knz6axiSw5Os64UzN-16">
          <mxGeometry y="150" width="118" height="30" as="geometry" />
        </mxCell>
        <mxCell id="Jy8knz6axiSw5Os64UzN-22" value="id_inventario (FK)" style="text;strokeColor=none;fillColor=none;align=left;verticalAlign=middle;spacingLeft=4;spacingRight=4;overflow=hidden;points=[[0,0.5],[1,0.5]];portConstraint=eastwest;rotatable=0;whiteSpace=wrap;html=1;" vertex="1" parent="Jy8knz6axiSw5Os64UzN-16">
          <mxGeometry y="180" width="118" height="30" as="geometry" />
        </mxCell>
        <mxCell id="Jy8knz6axiSw5Os64UzN-23" value="id_prestatario (FK)" style="text;strokeColor=none;fillColor=none;align=left;verticalAlign=middle;spacingLeft=4;spacingRight=4;overflow=hidden;points=[[0,0.5],[1,0.5]];portConstraint=eastwest;rotatable=0;whiteSpace=wrap;html=1;" vertex="1" parent="Jy8knz6axiSw5Os64UzN-16">
          <mxGeometry y="210" width="118" height="30" as="geometry" />
        </mxCell>
        <mxCell id="Jy8knz6axiSw5Os64UzN-24" style="edgeStyle=orthogonalEdgeStyle;rounded=0;orthogonalLoop=1;jettySize=auto;html=1;entryX=1;entryY=0.5;entryDx=0;entryDy=0;endArrow=ERoneToMany;endFill=0;startArrow=ERmandOne;startFill=0;exitX=1;exitY=0.5;exitDx=0;exitDy=0;" edge="1" parent="1" source="Jy8knz6axiSw5Os64UzN-31" target="Jy8knz6axiSw5Os64UzN-23">
          <mxGeometry relative="1" as="geometry">
            <mxPoint x="-151" y="340" as="sourcePoint" />
          </mxGeometry>
        </mxCell>
        <mxCell id="Jy8knz6axiSw5Os64UzN-25" style="edgeStyle=orthogonalEdgeStyle;rounded=0;orthogonalLoop=1;jettySize=auto;html=1;exitX=1;exitY=0.5;exitDx=0;exitDy=0;entryX=0;entryY=0.5;entryDx=0;entryDy=0;endArrow=ERoneToMany;endFill=0;startArrow=ERmandOne;startFill=0;" edge="1" parent="1" source="Jy8knz6axiSw5Os64UzN-10" target="Jy8knz6axiSw5Os64UzN-22">
          <mxGeometry relative="1" as="geometry" />
        </mxCell>
        <mxCell id="Jy8knz6axiSw5Os64UzN-26" value="Admin" style="swimlane;fontStyle=0;childLayout=stackLayout;horizontal=1;startSize=30;horizontalStack=0;resizeParent=1;resizeParentMax=0;resizeLast=0;collapsible=1;marginBottom=0;whiteSpace=wrap;html=1;" vertex="1" parent="1">
          <mxGeometry x="-628" y="400" width="100" height="120" as="geometry" />
        </mxCell>
        <mxCell id="Jy8knz6axiSw5Os64UzN-27" value="&lt;b&gt;&lt;u&gt;id (PK)&lt;/u&gt;&lt;/b&gt;" style="text;strokeColor=none;fillColor=none;align=left;verticalAlign=middle;spacingLeft=4;spacingRight=4;overflow=hidden;points=[[0,0.5],[1,0.5]];portConstraint=eastwest;rotatable=0;whiteSpace=wrap;html=1;" vertex="1" parent="Jy8knz6axiSw5Os64UzN-26">
          <mxGeometry y="30" width="100" height="30" as="geometry" />
        </mxCell>
        <mxCell id="Jy8knz6axiSw5Os64UzN-28" value="estado" style="text;strokeColor=none;fillColor=none;align=left;verticalAlign=middle;spacingLeft=4;spacingRight=4;overflow=hidden;points=[[0,0.5],[1,0.5]];portConstraint=eastwest;rotatable=0;whiteSpace=wrap;html=1;" vertex="1" parent="Jy8knz6axiSw5Os64UzN-26">
          <mxGeometry y="60" width="100" height="30" as="geometry" />
        </mxCell>
        <mxCell id="Jy8knz6axiSw5Os64UzN-29" value="id_usuario (FK)" style="text;strokeColor=none;fillColor=none;align=left;verticalAlign=middle;spacingLeft=4;spacingRight=4;overflow=hidden;points=[[0,0.5],[1,0.5]];portConstraint=eastwest;rotatable=0;whiteSpace=wrap;html=1;" vertex="1" parent="Jy8knz6axiSw5Os64UzN-26">
          <mxGeometry y="90" width="100" height="30" as="geometry" />
        </mxCell>
        <mxCell id="Jy8knz6axiSw5Os64UzN-30" value="Prestatario" style="swimlane;fontStyle=0;childLayout=stackLayout;horizontal=1;startSize=30;horizontalStack=0;resizeParent=1;resizeParentMax=0;resizeLast=0;collapsible=1;marginBottom=0;whiteSpace=wrap;html=1;" vertex="1" parent="1">
          <mxGeometry x="-318" y="400" width="100" height="120" as="geometry" />
        </mxCell>
        <mxCell id="Jy8knz6axiSw5Os64UzN-31" value="&lt;u&gt;&lt;b&gt;id (PK)&lt;/b&gt;&lt;/u&gt;" style="text;strokeColor=none;fillColor=none;align=left;verticalAlign=middle;spacingLeft=4;spacingRight=4;overflow=hidden;points=[[0,0.5],[1,0.5]];portConstraint=eastwest;rotatable=0;whiteSpace=wrap;html=1;" vertex="1" parent="Jy8knz6axiSw5Os64UzN-30">
          <mxGeometry y="30" width="100" height="30" as="geometry" />
        </mxCell>
        <mxCell id="Jy8knz6axiSw5Os64UzN-32" value="estado" style="text;strokeColor=none;fillColor=none;align=left;verticalAlign=middle;spacingLeft=4;spacingRight=4;overflow=hidden;points=[[0,0.5],[1,0.5]];portConstraint=eastwest;rotatable=0;whiteSpace=wrap;html=1;" vertex="1" parent="Jy8knz6axiSw5Os64UzN-30">
          <mxGeometry y="60" width="100" height="30" as="geometry" />
        </mxCell>
        <mxCell id="Jy8knz6axiSw5Os64UzN-33" value="id_usuario (FK)" style="text;strokeColor=none;fillColor=none;align=left;verticalAlign=middle;spacingLeft=4;spacingRight=4;overflow=hidden;points=[[0,0.5],[1,0.5]];portConstraint=eastwest;rotatable=0;whiteSpace=wrap;html=1;" vertex="1" parent="Jy8knz6axiSw5Os64UzN-30">
          <mxGeometry y="90" width="100" height="30" as="geometry" />
        </mxCell>
        <mxCell id="Jy8knz6axiSw5Os64UzN-34" style="edgeStyle=orthogonalEdgeStyle;rounded=0;orthogonalLoop=1;jettySize=auto;html=1;exitX=1;exitY=0.5;exitDx=0;exitDy=0;entryX=0;entryY=0.5;entryDx=0;entryDy=0;endArrow=ERoneToMany;endFill=0;startArrow=ERmandOne;startFill=0;" edge="1" parent="1" source="Jy8knz6axiSw5Os64UzN-2" target="Jy8knz6axiSw5Os64UzN-33">
          <mxGeometry relative="1" as="geometry" />
        </mxCell>
        <mxCell id="Jy8knz6axiSw5Os64UzN-35" style="edgeStyle=orthogonalEdgeStyle;rounded=0;orthogonalLoop=1;jettySize=auto;html=1;exitX=0;exitY=0.5;exitDx=0;exitDy=0;entryX=1;entryY=0.5;entryDx=0;entryDy=0;endArrow=ERoneToMany;endFill=0;startArrow=ERmandOne;startFill=0;" edge="1" parent="1" source="Jy8knz6axiSw5Os64UzN-2" target="Jy8knz6axiSw5Os64UzN-29">
          <mxGeometry relative="1" as="geometry" />
        </mxCell>
        <mxCell id="Jy8knz6axiSw5Os64UzN-36" value="&lt;font style=&quot;font-size: 24px;&quot;&gt;&lt;b&gt;Diagrama Lógico&lt;/b&gt;&lt;/font&gt;" style="text;html=1;align=center;verticalAlign=middle;whiteSpace=wrap;rounded=0;" vertex="1" parent="1">
          <mxGeometry x="-513" y="50" width="200" height="30" as="geometry" />
        </mxCell>
      </root>
    </mxGraphModel>
  </diagram>
  <diagram name="DER" id="ZS4AnigAkBk2wd1BA2H9">
    <mxGraphModel dx="1196" dy="584" grid="1" gridSize="10" guides="1" tooltips="1" connect="1" arrows="1" fold="1" page="1" pageScale="1" pageWidth="827" pageHeight="1169" math="0" shadow="0">
      <root>
        <mxCell id="0" />
        <mxCell id="1" parent="0" />
        <mxCell id="q7fqN8sZAUnPS2UOqxLT-38" value="Inventario" style="whiteSpace=wrap;html=1;align=center;" vertex="1" parent="1">
          <mxGeometry x="214" y="240" width="100" height="40" as="geometry" />
        </mxCell>
        <mxCell id="q7fqN8sZAUnPS2UOqxLT-52" style="rounded=0;orthogonalLoop=1;jettySize=auto;html=1;exitX=1;exitY=1;exitDx=0;exitDy=0;entryX=0.5;entryY=0;entryDx=0;entryDy=0;" edge="1" parent="1" source="q7fqN8sZAUnPS2UOqxLT-45" target="q7fqN8sZAUnPS2UOqxLT-38">
          <mxGeometry relative="1" as="geometry" />
        </mxCell>
        <mxCell id="q7fqN8sZAUnPS2UOqxLT-45" value="nombre" style="ellipse;whiteSpace=wrap;html=1;align=center;" vertex="1" parent="1">
          <mxGeometry x="114" y="120" width="100" height="40" as="geometry" />
        </mxCell>
        <mxCell id="q7fqN8sZAUnPS2UOqxLT-51" style="rounded=0;orthogonalLoop=1;jettySize=auto;html=1;exitX=0.5;exitY=1;exitDx=0;exitDy=0;entryX=0.75;entryY=0;entryDx=0;entryDy=0;" edge="1" parent="1" source="q7fqN8sZAUnPS2UOqxLT-46" target="q7fqN8sZAUnPS2UOqxLT-38">
          <mxGeometry relative="1" as="geometry" />
        </mxCell>
        <mxCell id="q7fqN8sZAUnPS2UOqxLT-46" value="id" style="ellipse;whiteSpace=wrap;html=1;align=center;fontStyle=4;" vertex="1" parent="1">
          <mxGeometry x="214" y="120" width="100" height="40" as="geometry" />
        </mxCell>
        <mxCell id="q7fqN8sZAUnPS2UOqxLT-60" style="rounded=0;orthogonalLoop=1;jettySize=auto;html=1;exitX=1;exitY=1;exitDx=0;exitDy=0;entryX=0.25;entryY=0;entryDx=0;entryDy=0;" edge="1" parent="1" source="q7fqN8sZAUnPS2UOqxLT-47" target="q7fqN8sZAUnPS2UOqxLT-38">
          <mxGeometry relative="1" as="geometry" />
        </mxCell>
        <mxCell id="q7fqN8sZAUnPS2UOqxLT-47" value="descripcion" style="ellipse;whiteSpace=wrap;html=1;align=center;" vertex="1" parent="1">
          <mxGeometry x="94" y="160" width="100" height="40" as="geometry" />
        </mxCell>
        <mxCell id="q7fqN8sZAUnPS2UOqxLT-61" style="rounded=0;orthogonalLoop=1;jettySize=auto;html=1;exitX=1;exitY=0.5;exitDx=0;exitDy=0;entryX=0;entryY=0.25;entryDx=0;entryDy=0;" edge="1" parent="1" source="q7fqN8sZAUnPS2UOqxLT-48" target="q7fqN8sZAUnPS2UOqxLT-38">
          <mxGeometry relative="1" as="geometry" />
        </mxCell>
        <mxCell id="q7fqN8sZAUnPS2UOqxLT-48" value="ubicaion" style="ellipse;whiteSpace=wrap;html=1;align=center;" vertex="1" parent="1">
          <mxGeometry x="54" y="200" width="100" height="40" as="geometry" />
        </mxCell>
        <mxCell id="q7fqN8sZAUnPS2UOqxLT-62" style="rounded=0;orthogonalLoop=1;jettySize=auto;html=1;exitX=1;exitY=0.5;exitDx=0;exitDy=0;entryX=0;entryY=0.5;entryDx=0;entryDy=0;" edge="1" parent="1" source="q7fqN8sZAUnPS2UOqxLT-49" target="q7fqN8sZAUnPS2UOqxLT-38">
          <mxGeometry relative="1" as="geometry" />
        </mxCell>
        <mxCell id="q7fqN8sZAUnPS2UOqxLT-49" value="foto" style="ellipse;whiteSpace=wrap;html=1;align=center;" vertex="1" parent="1">
          <mxGeometry x="14" y="240" width="100" height="40" as="geometry" />
        </mxCell>
        <mxCell id="q7fqN8sZAUnPS2UOqxLT-63" style="rounded=0;orthogonalLoop=1;jettySize=auto;html=1;exitX=1;exitY=0.5;exitDx=0;exitDy=0;entryX=0;entryY=0.75;entryDx=0;entryDy=0;" edge="1" parent="1" source="q7fqN8sZAUnPS2UOqxLT-50" target="q7fqN8sZAUnPS2UOqxLT-38">
          <mxGeometry relative="1" as="geometry" />
        </mxCell>
        <mxCell id="q7fqN8sZAUnPS2UOqxLT-50" value="estado" style="ellipse;whiteSpace=wrap;html=1;align=center;" vertex="1" parent="1">
          <mxGeometry x="14" y="280" width="100" height="40" as="geometry" />
        </mxCell>
        <mxCell id="q7fqN8sZAUnPS2UOqxLT-64" value="Prestamo" style="whiteSpace=wrap;html=1;align=center;" vertex="1" parent="1">
          <mxGeometry x="514" y="240" width="100" height="40" as="geometry" />
        </mxCell>
        <mxCell id="q7fqN8sZAUnPS2UOqxLT-65" style="rounded=0;orthogonalLoop=1;jettySize=auto;html=1;exitX=0;exitY=1;exitDx=0;exitDy=0;entryX=0.5;entryY=0;entryDx=0;entryDy=0;" edge="1" source="q7fqN8sZAUnPS2UOqxLT-66" target="q7fqN8sZAUnPS2UOqxLT-64" parent="1">
          <mxGeometry relative="1" as="geometry" />
        </mxCell>
        <mxCell id="q7fqN8sZAUnPS2UOqxLT-66" value="fechaSolicitud" style="ellipse;whiteSpace=wrap;html=1;align=center;" vertex="1" parent="1">
          <mxGeometry x="614" y="120" width="100" height="40" as="geometry" />
        </mxCell>
        <mxCell id="q7fqN8sZAUnPS2UOqxLT-67" style="rounded=0;orthogonalLoop=1;jettySize=auto;html=1;exitX=0.5;exitY=1;exitDx=0;exitDy=0;entryX=0.25;entryY=0;entryDx=0;entryDy=0;" edge="1" source="q7fqN8sZAUnPS2UOqxLT-68" target="q7fqN8sZAUnPS2UOqxLT-64" parent="1">
          <mxGeometry relative="1" as="geometry" />
        </mxCell>
        <mxCell id="q7fqN8sZAUnPS2UOqxLT-68" value="id" style="ellipse;whiteSpace=wrap;html=1;align=center;fontStyle=4;" vertex="1" parent="1">
          <mxGeometry x="514" y="120" width="100" height="40" as="geometry" />
        </mxCell>
        <mxCell id="q7fqN8sZAUnPS2UOqxLT-69" style="rounded=0;orthogonalLoop=1;jettySize=auto;html=1;exitX=0;exitY=1;exitDx=0;exitDy=0;entryX=0.75;entryY=0;entryDx=0;entryDy=0;" edge="1" source="q7fqN8sZAUnPS2UOqxLT-70" target="q7fqN8sZAUnPS2UOqxLT-64" parent="1">
          <mxGeometry relative="1" as="geometry" />
        </mxCell>
        <mxCell id="q7fqN8sZAUnPS2UOqxLT-70" value="fechaDevolucion" style="ellipse;whiteSpace=wrap;html=1;align=center;" vertex="1" parent="1">
          <mxGeometry x="634" y="160" width="100" height="40" as="geometry" />
        </mxCell>
        <mxCell id="q7fqN8sZAUnPS2UOqxLT-71" style="rounded=0;orthogonalLoop=1;jettySize=auto;html=1;exitX=0;exitY=0.5;exitDx=0;exitDy=0;entryX=1;entryY=0.25;entryDx=0;entryDy=0;" edge="1" source="q7fqN8sZAUnPS2UOqxLT-72" target="q7fqN8sZAUnPS2UOqxLT-64" parent="1">
          <mxGeometry relative="1" as="geometry" />
        </mxCell>
        <mxCell id="q7fqN8sZAUnPS2UOqxLT-72" value="estadoPrestamo" style="ellipse;whiteSpace=wrap;html=1;align=center;" vertex="1" parent="1">
          <mxGeometry x="674" y="200" width="100" height="40" as="geometry" />
        </mxCell>
        <mxCell id="q7fqN8sZAUnPS2UOqxLT-73" style="rounded=0;orthogonalLoop=1;jettySize=auto;html=1;exitX=0;exitY=0.5;exitDx=0;exitDy=0;entryX=1;entryY=0.5;entryDx=0;entryDy=0;" edge="1" source="q7fqN8sZAUnPS2UOqxLT-74" target="q7fqN8sZAUnPS2UOqxLT-64" parent="1">
          <mxGeometry relative="1" as="geometry">
            <mxPoint x="644" y="290" as="targetPoint" />
          </mxGeometry>
        </mxCell>
        <mxCell id="q7fqN8sZAUnPS2UOqxLT-74" value="estado" style="ellipse;whiteSpace=wrap;html=1;align=center;" vertex="1" parent="1">
          <mxGeometry x="714" y="240" width="100" height="40" as="geometry" />
        </mxCell>
        <mxCell id="q7fqN8sZAUnPS2UOqxLT-75" style="rounded=0;orthogonalLoop=1;jettySize=auto;html=1;exitX=0;exitY=0.5;exitDx=0;exitDy=0;entryX=1;entryY=0.75;entryDx=0;entryDy=0;" edge="1" source="q7fqN8sZAUnPS2UOqxLT-86" target="q7fqN8sZAUnPS2UOqxLT-64" parent="1">
          <mxGeometry relative="1" as="geometry">
            <mxPoint x="414" y="300" as="sourcePoint" />
          </mxGeometry>
        </mxCell>
        <mxCell id="WDCg3sRA28jPwSCPsuzg-1" style="rounded=0;orthogonalLoop=1;jettySize=auto;html=1;exitX=0;exitY=0;exitDx=0;exitDy=0;entryX=0.75;entryY=1;entryDx=0;entryDy=0;" edge="1" parent="1" source="q7fqN8sZAUnPS2UOqxLT-77" target="q7fqN8sZAUnPS2UOqxLT-64">
          <mxGeometry relative="1" as="geometry" />
        </mxCell>
        <mxCell id="q7fqN8sZAUnPS2UOqxLT-77" value="&lt;span style=&quot;border-bottom: 1px dotted&quot;&gt;id_prestatario&lt;/span&gt;" style="ellipse;whiteSpace=wrap;html=1;align=center;" vertex="1" parent="1">
          <mxGeometry x="674" y="320" width="100" height="40" as="geometry" />
        </mxCell>
        <mxCell id="q7fqN8sZAUnPS2UOqxLT-86" value="&lt;span style=&quot;border-bottom: 1px dotted&quot;&gt;id_inventario&lt;/span&gt;" style="ellipse;whiteSpace=wrap;html=1;align=center;" vertex="1" parent="1">
          <mxGeometry x="714" y="280" width="100" height="40" as="geometry" />
        </mxCell>
        <mxCell id="WDCg3sRA28jPwSCPsuzg-2" value="Prestatario" style="whiteSpace=wrap;html=1;align=center;" vertex="1" parent="1">
          <mxGeometry x="514" y="450" width="100" height="40" as="geometry" />
        </mxCell>
        <mxCell id="WDCg3sRA28jPwSCPsuzg-5" style="rounded=0;orthogonalLoop=1;jettySize=auto;html=1;exitX=0;exitY=0.5;exitDx=0;exitDy=0;entryX=1;entryY=0.5;entryDx=0;entryDy=0;" edge="1" source="WDCg3sRA28jPwSCPsuzg-6" target="WDCg3sRA28jPwSCPsuzg-2" parent="1">
          <mxGeometry relative="1" as="geometry" />
        </mxCell>
        <mxCell id="WDCg3sRA28jPwSCPsuzg-6" value="id" style="ellipse;whiteSpace=wrap;html=1;align=center;fontStyle=4;" vertex="1" parent="1">
          <mxGeometry x="654" y="450" width="100" height="40" as="geometry" />
        </mxCell>
        <mxCell id="WDCg3sRA28jPwSCPsuzg-7" style="rounded=0;orthogonalLoop=1;jettySize=auto;html=1;exitX=0;exitY=0;exitDx=0;exitDy=0;entryX=1;entryY=1;entryDx=0;entryDy=0;" edge="1" source="WDCg3sRA28jPwSCPsuzg-8" target="WDCg3sRA28jPwSCPsuzg-2" parent="1">
          <mxGeometry relative="1" as="geometry" />
        </mxCell>
        <mxCell id="WDCg3sRA28jPwSCPsuzg-8" value="estado" style="ellipse;whiteSpace=wrap;html=1;align=center;" vertex="1" parent="1">
          <mxGeometry x="614" y="510" width="100" height="40" as="geometry" />
        </mxCell>
        <mxCell id="WDCg3sRA28jPwSCPsuzg-13" style="rounded=0;orthogonalLoop=1;jettySize=auto;html=1;exitX=0.5;exitY=0;exitDx=0;exitDy=0;entryX=0.5;entryY=1;entryDx=0;entryDy=0;" edge="1" source="WDCg3sRA28jPwSCPsuzg-16" target="WDCg3sRA28jPwSCPsuzg-2" parent="1">
          <mxGeometry relative="1" as="geometry">
            <mxPoint x="414" y="510" as="sourcePoint" />
          </mxGeometry>
        </mxCell>
        <mxCell id="WDCg3sRA28jPwSCPsuzg-16" value="&lt;span style=&quot;border-bottom: 1px dotted&quot;&gt;id_usuario&lt;/span&gt;" style="ellipse;whiteSpace=wrap;html=1;align=center;" vertex="1" parent="1">
          <mxGeometry x="514" y="530" width="100" height="40" as="geometry" />
        </mxCell>
        <mxCell id="WDCg3sRA28jPwSCPsuzg-17" value="Usuario" style="whiteSpace=wrap;html=1;align=center;" vertex="1" parent="1">
          <mxGeometry x="214" y="450" width="100" height="40" as="geometry" />
        </mxCell>
        <mxCell id="WDCg3sRA28jPwSCPsuzg-18" style="rounded=0;orthogonalLoop=1;jettySize=auto;html=1;exitX=1;exitY=1;exitDx=0;exitDy=0;entryX=0.5;entryY=0;entryDx=0;entryDy=0;" edge="1" source="WDCg3sRA28jPwSCPsuzg-19" target="WDCg3sRA28jPwSCPsuzg-17" parent="1">
          <mxGeometry relative="1" as="geometry" />
        </mxCell>
        <mxCell id="WDCg3sRA28jPwSCPsuzg-19" value="clave" style="ellipse;whiteSpace=wrap;html=1;align=center;" vertex="1" parent="1">
          <mxGeometry x="114" y="330" width="100" height="40" as="geometry" />
        </mxCell>
        <mxCell id="WDCg3sRA28jPwSCPsuzg-20" style="rounded=0;orthogonalLoop=1;jettySize=auto;html=1;exitX=0.5;exitY=1;exitDx=0;exitDy=0;entryX=0.75;entryY=0;entryDx=0;entryDy=0;" edge="1" source="WDCg3sRA28jPwSCPsuzg-21" target="WDCg3sRA28jPwSCPsuzg-17" parent="1">
          <mxGeometry relative="1" as="geometry" />
        </mxCell>
        <mxCell id="WDCg3sRA28jPwSCPsuzg-21" value="nombreUsuario" style="ellipse;whiteSpace=wrap;html=1;align=center;fontStyle=4;" vertex="1" parent="1">
          <mxGeometry x="214" y="330" width="100" height="40" as="geometry" />
        </mxCell>
        <mxCell id="WDCg3sRA28jPwSCPsuzg-22" style="rounded=0;orthogonalLoop=1;jettySize=auto;html=1;exitX=1;exitY=1;exitDx=0;exitDy=0;entryX=0.25;entryY=0;entryDx=0;entryDy=0;" edge="1" source="WDCg3sRA28jPwSCPsuzg-23" target="WDCg3sRA28jPwSCPsuzg-17" parent="1">
          <mxGeometry relative="1" as="geometry" />
        </mxCell>
        <mxCell id="WDCg3sRA28jPwSCPsuzg-23" value="nombre" style="ellipse;whiteSpace=wrap;html=1;align=center;" vertex="1" parent="1">
          <mxGeometry x="94" y="370" width="100" height="40" as="geometry" />
        </mxCell>
        <mxCell id="WDCg3sRA28jPwSCPsuzg-24" style="rounded=0;orthogonalLoop=1;jettySize=auto;html=1;exitX=1;exitY=0.5;exitDx=0;exitDy=0;entryX=0;entryY=0.25;entryDx=0;entryDy=0;" edge="1" source="WDCg3sRA28jPwSCPsuzg-25" target="WDCg3sRA28jPwSCPsuzg-17" parent="1">
          <mxGeometry relative="1" as="geometry" />
        </mxCell>
        <mxCell id="WDCg3sRA28jPwSCPsuzg-25" value="apellido" style="ellipse;whiteSpace=wrap;html=1;align=center;" vertex="1" parent="1">
          <mxGeometry x="54" y="410" width="100" height="40" as="geometry" />
        </mxCell>
        <mxCell id="WDCg3sRA28jPwSCPsuzg-26" style="rounded=0;orthogonalLoop=1;jettySize=auto;html=1;exitX=1;exitY=0.5;exitDx=0;exitDy=0;entryX=0;entryY=0.5;entryDx=0;entryDy=0;" edge="1" source="WDCg3sRA28jPwSCPsuzg-27" target="WDCg3sRA28jPwSCPsuzg-17" parent="1">
          <mxGeometry relative="1" as="geometry" />
        </mxCell>
        <mxCell id="WDCg3sRA28jPwSCPsuzg-27" value="rol" style="ellipse;whiteSpace=wrap;html=1;align=center;" vertex="1" parent="1">
          <mxGeometry x="14" y="450" width="100" height="40" as="geometry" />
        </mxCell>
        <mxCell id="WDCg3sRA28jPwSCPsuzg-28" style="rounded=0;orthogonalLoop=1;jettySize=auto;html=1;exitX=1;exitY=0.5;exitDx=0;exitDy=0;entryX=0;entryY=0.75;entryDx=0;entryDy=0;" edge="1" source="WDCg3sRA28jPwSCPsuzg-32" target="WDCg3sRA28jPwSCPsuzg-17" parent="1">
          <mxGeometry relative="1" as="geometry">
            <mxPoint x="114" y="510" as="sourcePoint" />
          </mxGeometry>
        </mxCell>
        <mxCell id="WDCg3sRA28jPwSCPsuzg-29" style="rounded=0;orthogonalLoop=1;jettySize=auto;html=1;exitX=1;exitY=0;exitDx=0;exitDy=0;entryX=0.25;entryY=1;entryDx=0;entryDy=0;" edge="1" source="WDCg3sRA28jPwSCPsuzg-33" target="WDCg3sRA28jPwSCPsuzg-17" parent="1">
          <mxGeometry relative="1" as="geometry">
            <mxPoint x="139.18577200159393" y="535.7903613070484" as="sourcePoint" />
          </mxGeometry>
        </mxCell>
        <mxCell id="WDCg3sRA28jPwSCPsuzg-32" value="foto" style="ellipse;whiteSpace=wrap;html=1;align=center;" vertex="1" parent="1">
          <mxGeometry x="14" y="490" width="100" height="40" as="geometry" />
        </mxCell>
        <mxCell id="WDCg3sRA28jPwSCPsuzg-33" value="estado" style="ellipse;whiteSpace=wrap;html=1;align=center;" vertex="1" parent="1">
          <mxGeometry x="54" y="530" width="100" height="40" as="geometry" />
        </mxCell>
        <mxCell id="WDCg3sRA28jPwSCPsuzg-47" value="tiene&lt;div&gt;1:n&lt;/div&gt;" style="shape=rhombus;perimeter=rhombusPerimeter;whiteSpace=wrap;html=1;align=center;" vertex="1" parent="1">
          <mxGeometry x="354" y="230" width="120" height="60" as="geometry" />
        </mxCell>
        <mxCell id="WDCg3sRA28jPwSCPsuzg-49" value="" style="endArrow=none;html=1;rounded=0;entryX=1;entryY=0.5;entryDx=0;entryDy=0;exitX=0;exitY=0.5;exitDx=0;exitDy=0;" edge="1" parent="1" source="WDCg3sRA28jPwSCPsuzg-47" target="q7fqN8sZAUnPS2UOqxLT-38">
          <mxGeometry relative="1" as="geometry">
            <mxPoint x="364" y="80" as="sourcePoint" />
            <mxPoint x="524" y="80" as="targetPoint" />
          </mxGeometry>
        </mxCell>
        <mxCell id="WDCg3sRA28jPwSCPsuzg-50" value="1" style="resizable=0;html=1;whiteSpace=wrap;align=right;verticalAlign=bottom;" connectable="0" vertex="1" parent="WDCg3sRA28jPwSCPsuzg-49">
          <mxGeometry x="1" relative="1" as="geometry">
            <mxPoint x="10" as="offset" />
          </mxGeometry>
        </mxCell>
        <mxCell id="WDCg3sRA28jPwSCPsuzg-51" value="" style="endArrow=none;html=1;rounded=0;entryX=0;entryY=0.5;entryDx=0;entryDy=0;exitX=1;exitY=0.5;exitDx=0;exitDy=0;" edge="1" parent="1" source="WDCg3sRA28jPwSCPsuzg-47" target="q7fqN8sZAUnPS2UOqxLT-64">
          <mxGeometry relative="1" as="geometry">
            <mxPoint x="454" y="260" as="sourcePoint" />
            <mxPoint x="504" y="80" as="targetPoint" />
          </mxGeometry>
        </mxCell>
        <mxCell id="WDCg3sRA28jPwSCPsuzg-52" value="N" style="resizable=0;html=1;whiteSpace=wrap;align=right;verticalAlign=bottom;" connectable="0" vertex="1" parent="WDCg3sRA28jPwSCPsuzg-51">
          <mxGeometry x="1" relative="1" as="geometry" />
        </mxCell>
        <mxCell id="WDCg3sRA28jPwSCPsuzg-53" value="tiene&lt;div&gt;1:n&lt;/div&gt;" style="shape=rhombus;perimeter=rhombusPerimeter;whiteSpace=wrap;html=1;align=center;" vertex="1" parent="1">
          <mxGeometry x="504" y="340" width="120" height="60" as="geometry" />
        </mxCell>
        <mxCell id="WDCg3sRA28jPwSCPsuzg-54" value="" style="endArrow=none;html=1;rounded=0;entryX=0.5;entryY=1;entryDx=0;entryDy=0;exitX=0.5;exitY=0;exitDx=0;exitDy=0;" edge="1" parent="1" source="WDCg3sRA28jPwSCPsuzg-53" target="q7fqN8sZAUnPS2UOqxLT-64">
          <mxGeometry relative="1" as="geometry">
            <mxPoint x="564" y="370" as="sourcePoint" />
            <mxPoint x="524" y="270" as="targetPoint" />
          </mxGeometry>
        </mxCell>
        <mxCell id="WDCg3sRA28jPwSCPsuzg-55" value="N" style="resizable=0;html=1;whiteSpace=wrap;align=right;verticalAlign=bottom;" connectable="0" vertex="1" parent="WDCg3sRA28jPwSCPsuzg-54">
          <mxGeometry x="1" relative="1" as="geometry">
            <mxPoint y="20" as="offset" />
          </mxGeometry>
        </mxCell>
        <mxCell id="WDCg3sRA28jPwSCPsuzg-56" value="" style="endArrow=none;html=1;rounded=0;entryX=0.5;entryY=0;entryDx=0;entryDy=0;exitX=0.5;exitY=1;exitDx=0;exitDy=0;" edge="1" parent="1" source="WDCg3sRA28jPwSCPsuzg-53" target="WDCg3sRA28jPwSCPsuzg-2">
          <mxGeometry relative="1" as="geometry">
            <mxPoint x="564" y="360" as="sourcePoint" />
            <mxPoint x="284" y="200" as="targetPoint" />
          </mxGeometry>
        </mxCell>
        <mxCell id="WDCg3sRA28jPwSCPsuzg-57" value="1" style="resizable=0;html=1;whiteSpace=wrap;align=right;verticalAlign=bottom;" connectable="0" vertex="1" parent="WDCg3sRA28jPwSCPsuzg-56">
          <mxGeometry x="1" relative="1" as="geometry">
            <mxPoint as="offset" />
          </mxGeometry>
        </mxCell>
        <mxCell id="WDCg3sRA28jPwSCPsuzg-58" value="tiene&lt;div&gt;1:1&lt;/div&gt;" style="shape=rhombus;perimeter=rhombusPerimeter;whiteSpace=wrap;html=1;align=center;" vertex="1" parent="1">
          <mxGeometry x="354" y="440" width="120" height="60" as="geometry" />
        </mxCell>
        <mxCell id="WDCg3sRA28jPwSCPsuzg-59" value="" style="endArrow=none;html=1;rounded=0;entryX=0;entryY=0.5;entryDx=0;entryDy=0;exitX=1;exitY=0.5;exitDx=0;exitDy=0;" edge="1" parent="1" source="WDCg3sRA28jPwSCPsuzg-58" target="WDCg3sRA28jPwSCPsuzg-2">
          <mxGeometry relative="1" as="geometry">
            <mxPoint x="454" y="470" as="sourcePoint" />
            <mxPoint x="284" y="200" as="targetPoint" />
          </mxGeometry>
        </mxCell>
        <mxCell id="WDCg3sRA28jPwSCPsuzg-60" value="1" style="resizable=0;html=1;whiteSpace=wrap;align=right;verticalAlign=bottom;" connectable="0" vertex="1" parent="WDCg3sRA28jPwSCPsuzg-59">
          <mxGeometry x="1" relative="1" as="geometry">
            <mxPoint as="offset" />
          </mxGeometry>
        </mxCell>
        <mxCell id="WDCg3sRA28jPwSCPsuzg-61" value="" style="endArrow=none;html=1;rounded=0;entryX=1;entryY=0.5;entryDx=0;entryDy=0;exitX=0;exitY=0.5;exitDx=0;exitDy=0;" edge="1" parent="1" source="WDCg3sRA28jPwSCPsuzg-58" target="WDCg3sRA28jPwSCPsuzg-17">
          <mxGeometry relative="1" as="geometry">
            <mxPoint x="374" y="210" as="sourcePoint" />
            <mxPoint x="314" y="210" as="targetPoint" />
          </mxGeometry>
        </mxCell>
        <mxCell id="WDCg3sRA28jPwSCPsuzg-62" value="1" style="resizable=0;html=1;whiteSpace=wrap;align=right;verticalAlign=bottom;" connectable="0" vertex="1" parent="WDCg3sRA28jPwSCPsuzg-61">
          <mxGeometry x="1" relative="1" as="geometry">
            <mxPoint x="10" as="offset" />
          </mxGeometry>
        </mxCell>
        <mxCell id="WDCg3sRA28jPwSCPsuzg-63" value="Admin" style="whiteSpace=wrap;html=1;align=center;" vertex="1" parent="1">
          <mxGeometry x="214" y="660" width="100" height="40" as="geometry" />
        </mxCell>
        <mxCell id="WDCg3sRA28jPwSCPsuzg-64" style="rounded=0;orthogonalLoop=1;jettySize=auto;html=1;exitX=0;exitY=0.5;exitDx=0;exitDy=0;entryX=1;entryY=0.5;entryDx=0;entryDy=0;" edge="1" source="WDCg3sRA28jPwSCPsuzg-65" target="WDCg3sRA28jPwSCPsuzg-63" parent="1">
          <mxGeometry relative="1" as="geometry" />
        </mxCell>
        <mxCell id="WDCg3sRA28jPwSCPsuzg-65" value="id" style="ellipse;whiteSpace=wrap;html=1;align=center;fontStyle=4;" vertex="1" parent="1">
          <mxGeometry x="354" y="660" width="100" height="40" as="geometry" />
        </mxCell>
        <mxCell id="WDCg3sRA28jPwSCPsuzg-66" style="rounded=0;orthogonalLoop=1;jettySize=auto;html=1;exitX=0;exitY=0;exitDx=0;exitDy=0;entryX=1;entryY=1;entryDx=0;entryDy=0;" edge="1" source="WDCg3sRA28jPwSCPsuzg-67" target="WDCg3sRA28jPwSCPsuzg-63" parent="1">
          <mxGeometry relative="1" as="geometry" />
        </mxCell>
        <mxCell id="WDCg3sRA28jPwSCPsuzg-67" value="estado" style="ellipse;whiteSpace=wrap;html=1;align=center;" vertex="1" parent="1">
          <mxGeometry x="314" y="720" width="100" height="40" as="geometry" />
        </mxCell>
        <mxCell id="WDCg3sRA28jPwSCPsuzg-68" style="rounded=0;orthogonalLoop=1;jettySize=auto;html=1;exitX=0.5;exitY=0;exitDx=0;exitDy=0;entryX=0.5;entryY=1;entryDx=0;entryDy=0;" edge="1" source="WDCg3sRA28jPwSCPsuzg-69" target="WDCg3sRA28jPwSCPsuzg-63" parent="1">
          <mxGeometry relative="1" as="geometry">
            <mxPoint x="114" y="720" as="sourcePoint" />
          </mxGeometry>
        </mxCell>
        <mxCell id="WDCg3sRA28jPwSCPsuzg-69" value="&lt;span style=&quot;border-bottom: 1px dotted&quot;&gt;id_usuario&lt;/span&gt;" style="ellipse;whiteSpace=wrap;html=1;align=center;" vertex="1" parent="1">
          <mxGeometry x="214" y="740" width="100" height="40" as="geometry" />
        </mxCell>
        <mxCell id="WDCg3sRA28jPwSCPsuzg-72" value="tiene&lt;div&gt;1:1&lt;/div&gt;" style="shape=rhombus;perimeter=rhombusPerimeter;whiteSpace=wrap;html=1;align=center;" vertex="1" parent="1">
          <mxGeometry x="204" y="540" width="120" height="60" as="geometry" />
        </mxCell>
        <mxCell id="WDCg3sRA28jPwSCPsuzg-73" value="" style="endArrow=none;html=1;rounded=0;entryX=0.5;entryY=0;entryDx=0;entryDy=0;exitX=0.5;exitY=1;exitDx=0;exitDy=0;" edge="1" parent="1" source="WDCg3sRA28jPwSCPsuzg-72" target="WDCg3sRA28jPwSCPsuzg-63">
          <mxGeometry relative="1" as="geometry">
            <mxPoint x="384" y="440" as="sourcePoint" />
            <mxPoint x="324" y="440" as="targetPoint" />
          </mxGeometry>
        </mxCell>
        <mxCell id="WDCg3sRA28jPwSCPsuzg-74" value="1" style="resizable=0;html=1;whiteSpace=wrap;align=right;verticalAlign=bottom;" connectable="0" vertex="1" parent="WDCg3sRA28jPwSCPsuzg-73">
          <mxGeometry x="1" relative="1" as="geometry">
            <mxPoint as="offset" />
          </mxGeometry>
        </mxCell>
        <mxCell id="WDCg3sRA28jPwSCPsuzg-75" value="" style="endArrow=none;html=1;rounded=0;entryX=0.5;entryY=1;entryDx=0;entryDy=0;exitX=0.5;exitY=0;exitDx=0;exitDy=0;" edge="1" parent="1" source="WDCg3sRA28jPwSCPsuzg-72" target="WDCg3sRA28jPwSCPsuzg-17">
          <mxGeometry relative="1" as="geometry">
            <mxPoint x="394" y="490" as="sourcePoint" />
            <mxPoint x="334" y="490" as="targetPoint" />
          </mxGeometry>
        </mxCell>
        <mxCell id="WDCg3sRA28jPwSCPsuzg-76" value="1" style="resizable=0;html=1;whiteSpace=wrap;align=right;verticalAlign=bottom;" connectable="0" vertex="1" parent="WDCg3sRA28jPwSCPsuzg-75">
          <mxGeometry x="1" relative="1" as="geometry">
            <mxPoint y="20" as="offset" />
          </mxGeometry>
        </mxCell>
        <mxCell id="WDCg3sRA28jPwSCPsuzg-77" value="&lt;font style=&quot;font-size: 24px;&quot;&gt;&lt;b&gt;DER / Diagrama Conceptual CHEN&lt;/b&gt;&lt;/font&gt;" style="text;html=1;align=center;verticalAlign=middle;whiteSpace=wrap;rounded=0;" vertex="1" parent="1">
          <mxGeometry x="184" y="50" width="460" height="30" as="geometry" />
        </mxCell>
        <mxCell id="6jD9OS_ZzzCoOh8i5iIi-1" value="&lt;font style=&quot;font-size: 24px;&quot;&gt;&lt;b&gt;DD - Diccionario de Datos&lt;/b&gt;&lt;/font&gt;" style="rounded=1;whiteSpace=wrap;html=1;" vertex="1" parent="1">
          <mxGeometry x="40" y="800" width="760" height="40" as="geometry" />
        </mxCell>
        <mxCell id="6jD9OS_ZzzCoOh8i5iIi-3" value="&lt;h1 style=&quot;margin-top: 0px;&quot;&gt;Inventario&lt;/h1&gt;&lt;p&gt;&lt;font&gt;id: pk&lt;/font&gt;&lt;/p&gt;&lt;p&gt;&lt;font&gt;nombre&lt;/font&gt;&lt;/p&gt;&lt;p&gt;&lt;font&gt;descripcion&lt;/font&gt;&lt;/p&gt;&lt;p&gt;&lt;font&gt;ubicacion:&lt;br&gt;&lt;span style=&quot;white-space: pre;&quot;&gt;&#x9;&lt;/span&gt;DEPOSITO&lt;br&gt;&lt;span style=&quot;white-space: pre;&quot;&gt;&#x9;&lt;/span&gt;PRESTADO&lt;br&gt;&lt;/font&gt;&lt;/p&gt;&lt;p&gt;&lt;font&gt;foto&lt;/font&gt;&lt;/p&gt;&lt;p&gt;&lt;font&gt;estado:&lt;br&gt;&lt;span style=&quot;white-space: pre;&quot;&gt;&#x9;&lt;/span&gt;0&lt;br&gt;&lt;span style=&quot;white-space: pre;&quot;&gt;&#x9;&lt;/span&gt;1&lt;br&gt;&lt;/font&gt;&lt;/p&gt;&lt;p&gt;&lt;br&gt;&lt;/p&gt;" style="text;html=1;whiteSpace=wrap;overflow=hidden;rounded=0;" vertex="1" parent="1">
          <mxGeometry x="40" y="880" width="120" height="260" as="geometry" />
        </mxCell>
        <mxCell id="6jD9OS_ZzzCoOh8i5iIi-4" value="&lt;h1 style=&quot;margin-top: 0px;&quot;&gt;Usuario&lt;/h1&gt;&lt;p&gt;&lt;font&gt;nombreUsuario: pk&lt;/font&gt;&lt;/p&gt;&lt;p&gt;&lt;font&gt;clave&lt;/font&gt;&lt;/p&gt;&lt;p&gt;&lt;font&gt;nombre&lt;/font&gt;&lt;/p&gt;&lt;p&gt;&lt;font&gt;apellido&lt;/font&gt;&lt;/p&gt;&lt;p&gt;&lt;font&gt;rol:&lt;br&gt;&lt;span style=&quot;white-space: pre;&quot;&gt;&#x9;&lt;/span&gt;ADMIN&lt;br&gt;&lt;span style=&quot;white-space: pre;&quot;&gt;&#x9;&lt;/span&gt;PRESTATARIO&lt;br&gt;&lt;/font&gt;&lt;/p&gt;&lt;p&gt;&lt;font&gt;foto&lt;/font&gt;&lt;/p&gt;&lt;p&gt;&lt;font&gt;estado:&lt;br&gt;&lt;span style=&quot;white-space: pre;&quot;&gt;&#x9;&lt;/span&gt;0&lt;br&gt;&lt;span style=&quot;white-space: pre;&quot;&gt;&#x9;&lt;/span&gt;1&lt;br&gt;&lt;/font&gt;&lt;/p&gt;&lt;p&gt;&lt;br&gt;&lt;/p&gt;" style="text;html=1;whiteSpace=wrap;overflow=hidden;rounded=0;" vertex="1" parent="1">
          <mxGeometry x="204" y="880" width="120" height="280" as="geometry" />
        </mxCell>
        <mxCell id="6jD9OS_ZzzCoOh8i5iIi-5" value="&lt;h1 style=&quot;margin-top: 0px;&quot;&gt;Admin&lt;/h1&gt;&lt;p&gt;&lt;font&gt;id: pk&lt;/font&gt;&lt;/p&gt;&lt;p&gt;&lt;font&gt;estado:&lt;br&gt;&lt;span style=&quot;white-space: pre;&quot;&gt;&#x9;&lt;/span&gt;0&lt;br&gt;&lt;span style=&quot;white-space: pre;&quot;&gt;&#x9;&lt;/span&gt;1&lt;br&gt;&lt;/font&gt;&lt;/p&gt;&lt;p&gt;&lt;font&gt;id_usuario&lt;/font&gt;&lt;/p&gt;&lt;p&gt;&lt;br&gt;&lt;/p&gt;" style="text;html=1;whiteSpace=wrap;overflow=hidden;rounded=0;" vertex="1" parent="1">
          <mxGeometry x="360.5" y="880" width="119" height="160" as="geometry" />
        </mxCell>
        <mxCell id="6jD9OS_ZzzCoOh8i5iIi-6" value="&lt;h1 style=&quot;margin-top: 0px;&quot;&gt;Prestatario&lt;/h1&gt;&lt;p&gt;&lt;font&gt;id: pk&lt;/font&gt;&lt;/p&gt;&lt;p&gt;&lt;font&gt;estado:&lt;br&gt;&lt;span style=&quot;white-space: pre;&quot;&gt;&#x9;&lt;/span&gt;0&lt;br&gt;&lt;span style=&quot;white-space: pre;&quot;&gt;&#x9;&lt;/span&gt;1&lt;br&gt;&lt;/font&gt;&lt;/p&gt;&lt;p&gt;&lt;font&gt;id_usuario&lt;/font&gt;&lt;/p&gt;&lt;p&gt;&lt;br&gt;&lt;/p&gt;" style="text;html=1;whiteSpace=wrap;overflow=hidden;rounded=0;" vertex="1" parent="1">
          <mxGeometry x="514" y="880" width="128" height="160" as="geometry" />
        </mxCell>
        <mxCell id="6jD9OS_ZzzCoOh8i5iIi-7" value="&lt;h1 style=&quot;margin-top: 0px;&quot;&gt;Prestamo&lt;/h1&gt;&lt;p&gt;&lt;font&gt;id: pk&lt;/font&gt;&lt;/p&gt;&lt;p&gt;&lt;font&gt;fechaSolicitud&lt;/font&gt;&lt;/p&gt;&lt;p&gt;&lt;font&gt;fechaDevolucion&lt;/font&gt;&lt;/p&gt;&lt;p&gt;&lt;font&gt;estadoPrestamo:&lt;br&gt;&lt;span style=&quot;white-space: pre;&quot;&gt;&#x9;&lt;/span&gt;ACEPTADO&lt;br&gt;&lt;span style=&quot;white-space: pre;&quot;&gt;&#x9;&lt;/span&gt;CONCLUIDO&lt;br&gt;&lt;/font&gt;&lt;/p&gt;&lt;p&gt;&lt;font&gt;estado:&lt;br&gt;&lt;span style=&quot;white-space: pre;&quot;&gt;&#x9;&lt;/span&gt;0&lt;br&gt;&lt;span style=&quot;white-space: pre;&quot;&gt;&#x9;&lt;/span&gt;1&lt;br&gt;&lt;/font&gt;&lt;/p&gt;&lt;p&gt;&lt;font&gt;id_inventario&lt;/font&gt;&lt;/p&gt;&lt;p&gt;&lt;font&gt;id_prestatario&lt;/font&gt;&lt;/p&gt;&lt;p&gt;&lt;br&gt;&lt;/p&gt;" style="text;html=1;whiteSpace=wrap;overflow=hidden;rounded=0;" vertex="1" parent="1">
          <mxGeometry x="680" y="880" width="120" height="280" as="geometry" />
        </mxCell>
      </root>
    </mxGraphModel>
  </diagram>
  <diagram id="IgnhyqWI2_HJEoKpuXUT" name="Diagrama Fisico">
    <mxGraphModel dx="660" dy="585" grid="1" gridSize="10" guides="1" tooltips="1" connect="1" arrows="1" fold="1" page="1" pageScale="1" pageWidth="827" pageHeight="1169" math="0" shadow="0">
      <root>
        <mxCell id="0" />
        <mxCell id="1" parent="0" />
        <mxCell id="m9yIBbVPw-Hx9zCX_0sa-37" value="Inventario" style="shape=table;startSize=30;container=1;collapsible=1;childLayout=tableLayout;fixedRows=1;rowLines=0;fontStyle=1;align=center;resizeLast=1;html=1;" vertex="1" parent="1">
          <mxGeometry x="285" y="120" width="197" height="210" as="geometry" />
        </mxCell>
        <mxCell id="m9yIBbVPw-Hx9zCX_0sa-38" value="" style="shape=tableRow;horizontal=0;startSize=0;swimlaneHead=0;swimlaneBody=0;fillColor=none;collapsible=0;dropTarget=0;points=[[0,0.5],[1,0.5]];portConstraint=eastwest;top=0;left=0;right=0;bottom=1;" vertex="1" parent="m9yIBbVPw-Hx9zCX_0sa-37">
          <mxGeometry y="30" width="197" height="30" as="geometry" />
        </mxCell>
        <mxCell id="m9yIBbVPw-Hx9zCX_0sa-39" value="PK" style="shape=partialRectangle;connectable=0;fillColor=none;top=0;left=0;bottom=0;right=0;fontStyle=1;overflow=hidden;whiteSpace=wrap;html=1;" vertex="1" parent="m9yIBbVPw-Hx9zCX_0sa-38">
          <mxGeometry width="30" height="30" as="geometry">
            <mxRectangle width="30" height="30" as="alternateBounds" />
          </mxGeometry>
        </mxCell>
        <mxCell id="m9yIBbVPw-Hx9zCX_0sa-40" value="id (BIGINT)" style="shape=partialRectangle;connectable=0;fillColor=none;top=0;left=0;bottom=0;right=0;align=left;spacingLeft=6;fontStyle=5;overflow=hidden;whiteSpace=wrap;html=1;" vertex="1" parent="m9yIBbVPw-Hx9zCX_0sa-38">
          <mxGeometry x="30" width="167" height="30" as="geometry">
            <mxRectangle width="167" height="30" as="alternateBounds" />
          </mxGeometry>
        </mxCell>
        <mxCell id="m9yIBbVPw-Hx9zCX_0sa-41" value="" style="shape=tableRow;horizontal=0;startSize=0;swimlaneHead=0;swimlaneBody=0;fillColor=none;collapsible=0;dropTarget=0;points=[[0,0.5],[1,0.5]];portConstraint=eastwest;top=0;left=0;right=0;bottom=0;" vertex="1" parent="m9yIBbVPw-Hx9zCX_0sa-37">
          <mxGeometry y="60" width="197" height="30" as="geometry" />
        </mxCell>
        <mxCell id="m9yIBbVPw-Hx9zCX_0sa-42" value="" style="shape=partialRectangle;connectable=0;fillColor=none;top=0;left=0;bottom=0;right=0;editable=1;overflow=hidden;whiteSpace=wrap;html=1;" vertex="1" parent="m9yIBbVPw-Hx9zCX_0sa-41">
          <mxGeometry width="30" height="30" as="geometry">
            <mxRectangle width="30" height="30" as="alternateBounds" />
          </mxGeometry>
        </mxCell>
        <mxCell id="m9yIBbVPw-Hx9zCX_0sa-43" value="nombre (VARCHAR(150))" style="shape=partialRectangle;connectable=0;fillColor=none;top=0;left=0;bottom=0;right=0;align=left;spacingLeft=6;overflow=hidden;whiteSpace=wrap;html=1;" vertex="1" parent="m9yIBbVPw-Hx9zCX_0sa-41">
          <mxGeometry x="30" width="167" height="30" as="geometry">
            <mxRectangle width="167" height="30" as="alternateBounds" />
          </mxGeometry>
        </mxCell>
        <mxCell id="m9yIBbVPw-Hx9zCX_0sa-44" value="" style="shape=tableRow;horizontal=0;startSize=0;swimlaneHead=0;swimlaneBody=0;fillColor=none;collapsible=0;dropTarget=0;points=[[0,0.5],[1,0.5]];portConstraint=eastwest;top=0;left=0;right=0;bottom=0;" vertex="1" parent="m9yIBbVPw-Hx9zCX_0sa-37">
          <mxGeometry y="90" width="197" height="30" as="geometry" />
        </mxCell>
        <mxCell id="m9yIBbVPw-Hx9zCX_0sa-45" value="" style="shape=partialRectangle;connectable=0;fillColor=none;top=0;left=0;bottom=0;right=0;editable=1;overflow=hidden;whiteSpace=wrap;html=1;" vertex="1" parent="m9yIBbVPw-Hx9zCX_0sa-44">
          <mxGeometry width="30" height="30" as="geometry">
            <mxRectangle width="30" height="30" as="alternateBounds" />
          </mxGeometry>
        </mxCell>
        <mxCell id="m9yIBbVPw-Hx9zCX_0sa-46" value="descripcion (VARCHAR(254))" style="shape=partialRectangle;connectable=0;fillColor=none;top=0;left=0;bottom=0;right=0;align=left;spacingLeft=6;overflow=hidden;whiteSpace=wrap;html=1;" vertex="1" parent="m9yIBbVPw-Hx9zCX_0sa-44">
          <mxGeometry x="30" width="167" height="30" as="geometry">
            <mxRectangle width="167" height="30" as="alternateBounds" />
          </mxGeometry>
        </mxCell>
        <mxCell id="m9yIBbVPw-Hx9zCX_0sa-47" value="" style="shape=tableRow;horizontal=0;startSize=0;swimlaneHead=0;swimlaneBody=0;fillColor=none;collapsible=0;dropTarget=0;points=[[0,0.5],[1,0.5]];portConstraint=eastwest;top=0;left=0;right=0;bottom=0;" vertex="1" parent="m9yIBbVPw-Hx9zCX_0sa-37">
          <mxGeometry y="120" width="197" height="30" as="geometry" />
        </mxCell>
        <mxCell id="m9yIBbVPw-Hx9zCX_0sa-48" value="" style="shape=partialRectangle;connectable=0;fillColor=none;top=0;left=0;bottom=0;right=0;editable=1;overflow=hidden;whiteSpace=wrap;html=1;" vertex="1" parent="m9yIBbVPw-Hx9zCX_0sa-47">
          <mxGeometry width="30" height="30" as="geometry">
            <mxRectangle width="30" height="30" as="alternateBounds" />
          </mxGeometry>
        </mxCell>
        <mxCell id="m9yIBbVPw-Hx9zCX_0sa-49" value="ubicacion (VARCHAR(50))" style="shape=partialRectangle;connectable=0;fillColor=none;top=0;left=0;bottom=0;right=0;align=left;spacingLeft=6;overflow=hidden;whiteSpace=wrap;html=1;" vertex="1" parent="m9yIBbVPw-Hx9zCX_0sa-47">
          <mxGeometry x="30" width="167" height="30" as="geometry">
            <mxRectangle width="167" height="30" as="alternateBounds" />
          </mxGeometry>
        </mxCell>
        <mxCell id="m9yIBbVPw-Hx9zCX_0sa-50" value="" style="shape=tableRow;horizontal=0;startSize=0;swimlaneHead=0;swimlaneBody=0;fillColor=none;collapsible=0;dropTarget=0;points=[[0,0.5],[1,0.5]];portConstraint=eastwest;top=0;left=0;right=0;bottom=0;" vertex="1" parent="m9yIBbVPw-Hx9zCX_0sa-37">
          <mxGeometry y="150" width="197" height="30" as="geometry" />
        </mxCell>
        <mxCell id="m9yIBbVPw-Hx9zCX_0sa-51" value="" style="shape=partialRectangle;connectable=0;fillColor=none;top=0;left=0;bottom=0;right=0;editable=1;overflow=hidden;whiteSpace=wrap;html=1;" vertex="1" parent="m9yIBbVPw-Hx9zCX_0sa-50">
          <mxGeometry width="30" height="30" as="geometry">
            <mxRectangle width="30" height="30" as="alternateBounds" />
          </mxGeometry>
        </mxCell>
        <mxCell id="m9yIBbVPw-Hx9zCX_0sa-52" value="foto (VARCHAR(100))" style="shape=partialRectangle;connectable=0;fillColor=none;top=0;left=0;bottom=0;right=0;align=left;spacingLeft=6;overflow=hidden;whiteSpace=wrap;html=1;" vertex="1" parent="m9yIBbVPw-Hx9zCX_0sa-50">
          <mxGeometry x="30" width="167" height="30" as="geometry">
            <mxRectangle width="167" height="30" as="alternateBounds" />
          </mxGeometry>
        </mxCell>
        <mxCell id="m9yIBbVPw-Hx9zCX_0sa-53" value="" style="shape=tableRow;horizontal=0;startSize=0;swimlaneHead=0;swimlaneBody=0;fillColor=none;collapsible=0;dropTarget=0;points=[[0,0.5],[1,0.5]];portConstraint=eastwest;top=0;left=0;right=0;bottom=0;" vertex="1" parent="m9yIBbVPw-Hx9zCX_0sa-37">
          <mxGeometry y="180" width="197" height="30" as="geometry" />
        </mxCell>
        <mxCell id="m9yIBbVPw-Hx9zCX_0sa-54" value="" style="shape=partialRectangle;connectable=0;fillColor=none;top=0;left=0;bottom=0;right=0;editable=1;overflow=hidden;whiteSpace=wrap;html=1;" vertex="1" parent="m9yIBbVPw-Hx9zCX_0sa-53">
          <mxGeometry width="30" height="30" as="geometry">
            <mxRectangle width="30" height="30" as="alternateBounds" />
          </mxGeometry>
        </mxCell>
        <mxCell id="m9yIBbVPw-Hx9zCX_0sa-55" value="estado (TINYINT(1))" style="shape=partialRectangle;connectable=0;fillColor=none;top=0;left=0;bottom=0;right=0;align=left;spacingLeft=6;overflow=hidden;whiteSpace=wrap;html=1;" vertex="1" parent="m9yIBbVPw-Hx9zCX_0sa-53">
          <mxGeometry x="30" width="167" height="30" as="geometry">
            <mxRectangle width="167" height="30" as="alternateBounds" />
          </mxGeometry>
        </mxCell>
        <mxCell id="CLAHwAtOvS05eVAsObR1-1" value="Prestamo" style="shape=table;startSize=30;container=1;collapsible=1;childLayout=tableLayout;fixedRows=1;rowLines=0;fontStyle=1;align=center;resizeLast=1;html=1;" vertex="1" parent="1">
          <mxGeometry x="525" y="120" width="217" height="240" as="geometry" />
        </mxCell>
        <mxCell id="CLAHwAtOvS05eVAsObR1-2" value="" style="shape=tableRow;horizontal=0;startSize=0;swimlaneHead=0;swimlaneBody=0;fillColor=none;collapsible=0;dropTarget=0;points=[[0,0.5],[1,0.5]];portConstraint=eastwest;top=0;left=0;right=0;bottom=1;" vertex="1" parent="CLAHwAtOvS05eVAsObR1-1">
          <mxGeometry y="30" width="217" height="30" as="geometry" />
        </mxCell>
        <mxCell id="CLAHwAtOvS05eVAsObR1-3" value="PK" style="shape=partialRectangle;connectable=0;fillColor=none;top=0;left=0;bottom=0;right=0;fontStyle=1;overflow=hidden;whiteSpace=wrap;html=1;" vertex="1" parent="CLAHwAtOvS05eVAsObR1-2">
          <mxGeometry width="30" height="30" as="geometry">
            <mxRectangle width="30" height="30" as="alternateBounds" />
          </mxGeometry>
        </mxCell>
        <mxCell id="CLAHwAtOvS05eVAsObR1-4" value="id (BIGINT)" style="shape=partialRectangle;connectable=0;fillColor=none;top=0;left=0;bottom=0;right=0;align=left;spacingLeft=6;fontStyle=5;overflow=hidden;whiteSpace=wrap;html=1;" vertex="1" parent="CLAHwAtOvS05eVAsObR1-2">
          <mxGeometry x="30" width="187" height="30" as="geometry">
            <mxRectangle width="187" height="30" as="alternateBounds" />
          </mxGeometry>
        </mxCell>
        <mxCell id="CLAHwAtOvS05eVAsObR1-5" value="" style="shape=tableRow;horizontal=0;startSize=0;swimlaneHead=0;swimlaneBody=0;fillColor=none;collapsible=0;dropTarget=0;points=[[0,0.5],[1,0.5]];portConstraint=eastwest;top=0;left=0;right=0;bottom=0;" vertex="1" parent="CLAHwAtOvS05eVAsObR1-1">
          <mxGeometry y="60" width="217" height="30" as="geometry" />
        </mxCell>
        <mxCell id="CLAHwAtOvS05eVAsObR1-6" value="" style="shape=partialRectangle;connectable=0;fillColor=none;top=0;left=0;bottom=0;right=0;editable=1;overflow=hidden;whiteSpace=wrap;html=1;" vertex="1" parent="CLAHwAtOvS05eVAsObR1-5">
          <mxGeometry width="30" height="30" as="geometry">
            <mxRectangle width="30" height="30" as="alternateBounds" />
          </mxGeometry>
        </mxCell>
        <mxCell id="CLAHwAtOvS05eVAsObR1-7" value="fechaSolicitud (DATETIME(6))" style="shape=partialRectangle;connectable=0;fillColor=none;top=0;left=0;bottom=0;right=0;align=left;spacingLeft=6;overflow=hidden;whiteSpace=wrap;html=1;" vertex="1" parent="CLAHwAtOvS05eVAsObR1-5">
          <mxGeometry x="30" width="187" height="30" as="geometry">
            <mxRectangle width="187" height="30" as="alternateBounds" />
          </mxGeometry>
        </mxCell>
        <mxCell id="CLAHwAtOvS05eVAsObR1-8" value="" style="shape=tableRow;horizontal=0;startSize=0;swimlaneHead=0;swimlaneBody=0;fillColor=none;collapsible=0;dropTarget=0;points=[[0,0.5],[1,0.5]];portConstraint=eastwest;top=0;left=0;right=0;bottom=0;" vertex="1" parent="CLAHwAtOvS05eVAsObR1-1">
          <mxGeometry y="90" width="217" height="30" as="geometry" />
        </mxCell>
        <mxCell id="CLAHwAtOvS05eVAsObR1-9" value="" style="shape=partialRectangle;connectable=0;fillColor=none;top=0;left=0;bottom=0;right=0;editable=1;overflow=hidden;whiteSpace=wrap;html=1;" vertex="1" parent="CLAHwAtOvS05eVAsObR1-8">
          <mxGeometry width="30" height="30" as="geometry">
            <mxRectangle width="30" height="30" as="alternateBounds" />
          </mxGeometry>
        </mxCell>
        <mxCell id="CLAHwAtOvS05eVAsObR1-10" value="fechaDevolucion DATETIME(6))" style="shape=partialRectangle;connectable=0;fillColor=none;top=0;left=0;bottom=0;right=0;align=left;spacingLeft=6;overflow=hidden;whiteSpace=wrap;html=1;" vertex="1" parent="CLAHwAtOvS05eVAsObR1-8">
          <mxGeometry x="30" width="187" height="30" as="geometry">
            <mxRectangle width="187" height="30" as="alternateBounds" />
          </mxGeometry>
        </mxCell>
        <mxCell id="CLAHwAtOvS05eVAsObR1-11" value="" style="shape=tableRow;horizontal=0;startSize=0;swimlaneHead=0;swimlaneBody=0;fillColor=none;collapsible=0;dropTarget=0;points=[[0,0.5],[1,0.5]];portConstraint=eastwest;top=0;left=0;right=0;bottom=0;" vertex="1" parent="CLAHwAtOvS05eVAsObR1-1">
          <mxGeometry y="120" width="217" height="30" as="geometry" />
        </mxCell>
        <mxCell id="CLAHwAtOvS05eVAsObR1-12" value="" style="shape=partialRectangle;connectable=0;fillColor=none;top=0;left=0;bottom=0;right=0;editable=1;overflow=hidden;whiteSpace=wrap;html=1;" vertex="1" parent="CLAHwAtOvS05eVAsObR1-11">
          <mxGeometry width="30" height="30" as="geometry">
            <mxRectangle width="30" height="30" as="alternateBounds" />
          </mxGeometry>
        </mxCell>
        <mxCell id="CLAHwAtOvS05eVAsObR1-13" value="estadoPrestamo (VARCHAR(50))" style="shape=partialRectangle;connectable=0;fillColor=none;top=0;left=0;bottom=0;right=0;align=left;spacingLeft=6;overflow=hidden;whiteSpace=wrap;html=1;" vertex="1" parent="CLAHwAtOvS05eVAsObR1-11">
          <mxGeometry x="30" width="187" height="30" as="geometry">
            <mxRectangle width="187" height="30" as="alternateBounds" />
          </mxGeometry>
        </mxCell>
        <mxCell id="CLAHwAtOvS05eVAsObR1-17" value="" style="shape=tableRow;horizontal=0;startSize=0;swimlaneHead=0;swimlaneBody=0;fillColor=none;collapsible=0;dropTarget=0;points=[[0,0.5],[1,0.5]];portConstraint=eastwest;top=0;left=0;right=0;bottom=0;" vertex="1" parent="CLAHwAtOvS05eVAsObR1-1">
          <mxGeometry y="150" width="217" height="30" as="geometry" />
        </mxCell>
        <mxCell id="CLAHwAtOvS05eVAsObR1-18" value="" style="shape=partialRectangle;connectable=0;fillColor=none;top=0;left=0;bottom=0;right=0;editable=1;overflow=hidden;whiteSpace=wrap;html=1;" vertex="1" parent="CLAHwAtOvS05eVAsObR1-17">
          <mxGeometry width="30" height="30" as="geometry">
            <mxRectangle width="30" height="30" as="alternateBounds" />
          </mxGeometry>
        </mxCell>
        <mxCell id="CLAHwAtOvS05eVAsObR1-19" value="estado (TINYINT(1))" style="shape=partialRectangle;connectable=0;fillColor=none;top=0;left=0;bottom=0;right=0;align=left;spacingLeft=6;overflow=hidden;whiteSpace=wrap;html=1;" vertex="1" parent="CLAHwAtOvS05eVAsObR1-17">
          <mxGeometry x="30" width="187" height="30" as="geometry">
            <mxRectangle width="187" height="30" as="alternateBounds" />
          </mxGeometry>
        </mxCell>
        <mxCell id="CLAHwAtOvS05eVAsObR1-14" value="" style="shape=tableRow;horizontal=0;startSize=0;swimlaneHead=0;swimlaneBody=0;fillColor=none;collapsible=0;dropTarget=0;points=[[0,0.5],[1,0.5]];portConstraint=eastwest;top=0;left=0;right=0;bottom=0;" vertex="1" parent="CLAHwAtOvS05eVAsObR1-1">
          <mxGeometry y="180" width="217" height="30" as="geometry" />
        </mxCell>
        <mxCell id="CLAHwAtOvS05eVAsObR1-15" value="FK" style="shape=partialRectangle;connectable=0;fillColor=none;top=0;left=0;bottom=0;right=0;editable=1;overflow=hidden;whiteSpace=wrap;html=1;" vertex="1" parent="CLAHwAtOvS05eVAsObR1-14">
          <mxGeometry width="30" height="30" as="geometry">
            <mxRectangle width="30" height="30" as="alternateBounds" />
          </mxGeometry>
        </mxCell>
        <mxCell id="CLAHwAtOvS05eVAsObR1-16" value="id_inventario (BIGINT)" style="shape=partialRectangle;connectable=0;fillColor=none;top=0;left=0;bottom=0;right=0;align=left;spacingLeft=6;overflow=hidden;whiteSpace=wrap;html=1;" vertex="1" parent="CLAHwAtOvS05eVAsObR1-14">
          <mxGeometry x="30" width="187" height="30" as="geometry">
            <mxRectangle width="187" height="30" as="alternateBounds" />
          </mxGeometry>
        </mxCell>
        <mxCell id="CLAHwAtOvS05eVAsObR1-23" value="" style="shape=tableRow;horizontal=0;startSize=0;swimlaneHead=0;swimlaneBody=0;fillColor=none;collapsible=0;dropTarget=0;points=[[0,0.5],[1,0.5]];portConstraint=eastwest;top=0;left=0;right=0;bottom=0;" vertex="1" parent="CLAHwAtOvS05eVAsObR1-1">
          <mxGeometry y="210" width="217" height="30" as="geometry" />
        </mxCell>
        <mxCell id="CLAHwAtOvS05eVAsObR1-24" value="FK" style="shape=partialRectangle;connectable=0;fillColor=none;top=0;left=0;bottom=0;right=0;editable=1;overflow=hidden;whiteSpace=wrap;html=1;" vertex="1" parent="CLAHwAtOvS05eVAsObR1-23">
          <mxGeometry width="30" height="30" as="geometry">
            <mxRectangle width="30" height="30" as="alternateBounds" />
          </mxGeometry>
        </mxCell>
        <mxCell id="CLAHwAtOvS05eVAsObR1-25" value="id_prestatario (BIGINT)" style="shape=partialRectangle;connectable=0;fillColor=none;top=0;left=0;bottom=0;right=0;align=left;spacingLeft=6;overflow=hidden;whiteSpace=wrap;html=1;" vertex="1" parent="CLAHwAtOvS05eVAsObR1-23">
          <mxGeometry x="30" width="187" height="30" as="geometry">
            <mxRectangle width="187" height="30" as="alternateBounds" />
          </mxGeometry>
        </mxCell>
        <mxCell id="CLAHwAtOvS05eVAsObR1-26" value="Prestatario" style="shape=table;startSize=30;container=1;collapsible=1;childLayout=tableLayout;fixedRows=1;rowLines=0;fontStyle=1;align=center;resizeLast=1;html=1;" vertex="1" parent="1">
          <mxGeometry x="575" y="400" width="167" height="120" as="geometry" />
        </mxCell>
        <mxCell id="CLAHwAtOvS05eVAsObR1-27" value="" style="shape=tableRow;horizontal=0;startSize=0;swimlaneHead=0;swimlaneBody=0;fillColor=none;collapsible=0;dropTarget=0;points=[[0,0.5],[1,0.5]];portConstraint=eastwest;top=0;left=0;right=0;bottom=1;" vertex="1" parent="CLAHwAtOvS05eVAsObR1-26">
          <mxGeometry y="30" width="167" height="30" as="geometry" />
        </mxCell>
        <mxCell id="CLAHwAtOvS05eVAsObR1-28" value="PK" style="shape=partialRectangle;connectable=0;fillColor=none;top=0;left=0;bottom=0;right=0;fontStyle=1;overflow=hidden;whiteSpace=wrap;html=1;" vertex="1" parent="CLAHwAtOvS05eVAsObR1-27">
          <mxGeometry width="30" height="30" as="geometry">
            <mxRectangle width="30" height="30" as="alternateBounds" />
          </mxGeometry>
        </mxCell>
        <mxCell id="CLAHwAtOvS05eVAsObR1-29" value="id (BIGINT)" style="shape=partialRectangle;connectable=0;fillColor=none;top=0;left=0;bottom=0;right=0;align=left;spacingLeft=6;fontStyle=5;overflow=hidden;whiteSpace=wrap;html=1;" vertex="1" parent="CLAHwAtOvS05eVAsObR1-27">
          <mxGeometry x="30" width="137" height="30" as="geometry">
            <mxRectangle width="137" height="30" as="alternateBounds" />
          </mxGeometry>
        </mxCell>
        <mxCell id="CLAHwAtOvS05eVAsObR1-39" value="" style="shape=tableRow;horizontal=0;startSize=0;swimlaneHead=0;swimlaneBody=0;fillColor=none;collapsible=0;dropTarget=0;points=[[0,0.5],[1,0.5]];portConstraint=eastwest;top=0;left=0;right=0;bottom=0;" vertex="1" parent="CLAHwAtOvS05eVAsObR1-26">
          <mxGeometry y="60" width="167" height="30" as="geometry" />
        </mxCell>
        <mxCell id="CLAHwAtOvS05eVAsObR1-40" value="" style="shape=partialRectangle;connectable=0;fillColor=none;top=0;left=0;bottom=0;right=0;editable=1;overflow=hidden;whiteSpace=wrap;html=1;" vertex="1" parent="CLAHwAtOvS05eVAsObR1-39">
          <mxGeometry width="30" height="30" as="geometry">
            <mxRectangle width="30" height="30" as="alternateBounds" />
          </mxGeometry>
        </mxCell>
        <mxCell id="CLAHwAtOvS05eVAsObR1-41" value="estado (TINYINT(1))" style="shape=partialRectangle;connectable=0;fillColor=none;top=0;left=0;bottom=0;right=0;align=left;spacingLeft=6;overflow=hidden;whiteSpace=wrap;html=1;" vertex="1" parent="CLAHwAtOvS05eVAsObR1-39">
          <mxGeometry x="30" width="137" height="30" as="geometry">
            <mxRectangle width="137" height="30" as="alternateBounds" />
          </mxGeometry>
        </mxCell>
        <mxCell id="CLAHwAtOvS05eVAsObR1-42" value="" style="shape=tableRow;horizontal=0;startSize=0;swimlaneHead=0;swimlaneBody=0;fillColor=none;collapsible=0;dropTarget=0;points=[[0,0.5],[1,0.5]];portConstraint=eastwest;top=0;left=0;right=0;bottom=0;" vertex="1" parent="CLAHwAtOvS05eVAsObR1-26">
          <mxGeometry y="90" width="167" height="30" as="geometry" />
        </mxCell>
        <mxCell id="CLAHwAtOvS05eVAsObR1-43" value="FK" style="shape=partialRectangle;connectable=0;fillColor=none;top=0;left=0;bottom=0;right=0;editable=1;overflow=hidden;whiteSpace=wrap;html=1;" vertex="1" parent="CLAHwAtOvS05eVAsObR1-42">
          <mxGeometry width="30" height="30" as="geometry">
            <mxRectangle width="30" height="30" as="alternateBounds" />
          </mxGeometry>
        </mxCell>
        <mxCell id="CLAHwAtOvS05eVAsObR1-44" value="id_usuario (CHAR(150))" style="shape=partialRectangle;connectable=0;fillColor=none;top=0;left=0;bottom=0;right=0;align=left;spacingLeft=6;overflow=hidden;whiteSpace=wrap;html=1;" vertex="1" parent="CLAHwAtOvS05eVAsObR1-42">
          <mxGeometry x="30" width="137" height="30" as="geometry">
            <mxRectangle width="137" height="30" as="alternateBounds" />
          </mxGeometry>
        </mxCell>
        <mxCell id="CLAHwAtOvS05eVAsObR1-48" value="Admin" style="shape=table;startSize=30;container=1;collapsible=1;childLayout=tableLayout;fixedRows=1;rowLines=0;fontStyle=1;align=center;resizeLast=1;html=1;" vertex="1" parent="1">
          <mxGeometry x="65" y="400" width="167" height="120" as="geometry" />
        </mxCell>
        <mxCell id="CLAHwAtOvS05eVAsObR1-49" value="" style="shape=tableRow;horizontal=0;startSize=0;swimlaneHead=0;swimlaneBody=0;fillColor=none;collapsible=0;dropTarget=0;points=[[0,0.5],[1,0.5]];portConstraint=eastwest;top=0;left=0;right=0;bottom=1;" vertex="1" parent="CLAHwAtOvS05eVAsObR1-48">
          <mxGeometry y="30" width="167" height="30" as="geometry" />
        </mxCell>
        <mxCell id="CLAHwAtOvS05eVAsObR1-50" value="PK" style="shape=partialRectangle;connectable=0;fillColor=none;top=0;left=0;bottom=0;right=0;fontStyle=1;overflow=hidden;whiteSpace=wrap;html=1;" vertex="1" parent="CLAHwAtOvS05eVAsObR1-49">
          <mxGeometry width="30" height="30" as="geometry">
            <mxRectangle width="30" height="30" as="alternateBounds" />
          </mxGeometry>
        </mxCell>
        <mxCell id="CLAHwAtOvS05eVAsObR1-51" value="id (BIGINT)" style="shape=partialRectangle;connectable=0;fillColor=none;top=0;left=0;bottom=0;right=0;align=left;spacingLeft=6;fontStyle=5;overflow=hidden;whiteSpace=wrap;html=1;" vertex="1" parent="CLAHwAtOvS05eVAsObR1-49">
          <mxGeometry x="30" width="137" height="30" as="geometry">
            <mxRectangle width="137" height="30" as="alternateBounds" />
          </mxGeometry>
        </mxCell>
        <mxCell id="CLAHwAtOvS05eVAsObR1-52" value="" style="shape=tableRow;horizontal=0;startSize=0;swimlaneHead=0;swimlaneBody=0;fillColor=none;collapsible=0;dropTarget=0;points=[[0,0.5],[1,0.5]];portConstraint=eastwest;top=0;left=0;right=0;bottom=0;" vertex="1" parent="CLAHwAtOvS05eVAsObR1-48">
          <mxGeometry y="60" width="167" height="30" as="geometry" />
        </mxCell>
        <mxCell id="CLAHwAtOvS05eVAsObR1-53" value="" style="shape=partialRectangle;connectable=0;fillColor=none;top=0;left=0;bottom=0;right=0;editable=1;overflow=hidden;whiteSpace=wrap;html=1;" vertex="1" parent="CLAHwAtOvS05eVAsObR1-52">
          <mxGeometry width="30" height="30" as="geometry">
            <mxRectangle width="30" height="30" as="alternateBounds" />
          </mxGeometry>
        </mxCell>
        <mxCell id="CLAHwAtOvS05eVAsObR1-54" value="estado (TINYINT(1))" style="shape=partialRectangle;connectable=0;fillColor=none;top=0;left=0;bottom=0;right=0;align=left;spacingLeft=6;overflow=hidden;whiteSpace=wrap;html=1;" vertex="1" parent="CLAHwAtOvS05eVAsObR1-52">
          <mxGeometry x="30" width="137" height="30" as="geometry">
            <mxRectangle width="137" height="30" as="alternateBounds" />
          </mxGeometry>
        </mxCell>
        <mxCell id="CLAHwAtOvS05eVAsObR1-55" value="" style="shape=tableRow;horizontal=0;startSize=0;swimlaneHead=0;swimlaneBody=0;fillColor=none;collapsible=0;dropTarget=0;points=[[0,0.5],[1,0.5]];portConstraint=eastwest;top=0;left=0;right=0;bottom=0;" vertex="1" parent="CLAHwAtOvS05eVAsObR1-48">
          <mxGeometry y="90" width="167" height="30" as="geometry" />
        </mxCell>
        <mxCell id="CLAHwAtOvS05eVAsObR1-56" value="FK" style="shape=partialRectangle;connectable=0;fillColor=none;top=0;left=0;bottom=0;right=0;editable=1;overflow=hidden;whiteSpace=wrap;html=1;" vertex="1" parent="CLAHwAtOvS05eVAsObR1-55">
          <mxGeometry width="30" height="30" as="geometry">
            <mxRectangle width="30" height="30" as="alternateBounds" />
          </mxGeometry>
        </mxCell>
        <mxCell id="CLAHwAtOvS05eVAsObR1-57" value="id_usuario (CHAR(150))" style="shape=partialRectangle;connectable=0;fillColor=none;top=0;left=0;bottom=0;right=0;align=left;spacingLeft=6;overflow=hidden;whiteSpace=wrap;html=1;" vertex="1" parent="CLAHwAtOvS05eVAsObR1-55">
          <mxGeometry x="30" width="137" height="30" as="geometry">
            <mxRectangle width="137" height="30" as="alternateBounds" />
          </mxGeometry>
        </mxCell>
        <mxCell id="CLAHwAtOvS05eVAsObR1-58" value="Usuario" style="shape=table;startSize=30;container=1;collapsible=1;childLayout=tableLayout;fixedRows=1;rowLines=0;fontStyle=1;align=center;resizeLast=1;html=1;" vertex="1" parent="1">
          <mxGeometry x="280" y="400" width="207" height="240" as="geometry" />
        </mxCell>
        <mxCell id="CLAHwAtOvS05eVAsObR1-59" value="" style="shape=tableRow;horizontal=0;startSize=0;swimlaneHead=0;swimlaneBody=0;fillColor=none;collapsible=0;dropTarget=0;points=[[0,0.5],[1,0.5]];portConstraint=eastwest;top=0;left=0;right=0;bottom=1;" vertex="1" parent="CLAHwAtOvS05eVAsObR1-58">
          <mxGeometry y="30" width="207" height="30" as="geometry" />
        </mxCell>
        <mxCell id="CLAHwAtOvS05eVAsObR1-60" value="PK" style="shape=partialRectangle;connectable=0;fillColor=none;top=0;left=0;bottom=0;right=0;fontStyle=1;overflow=hidden;whiteSpace=wrap;html=1;" vertex="1" parent="CLAHwAtOvS05eVAsObR1-59">
          <mxGeometry width="30" height="30" as="geometry">
            <mxRectangle width="30" height="30" as="alternateBounds" />
          </mxGeometry>
        </mxCell>
        <mxCell id="CLAHwAtOvS05eVAsObR1-61" value="nombreUsuario (CHAR(150))" style="shape=partialRectangle;connectable=0;fillColor=none;top=0;left=0;bottom=0;right=0;align=left;spacingLeft=6;fontStyle=5;overflow=hidden;whiteSpace=wrap;html=1;" vertex="1" parent="CLAHwAtOvS05eVAsObR1-59">
          <mxGeometry x="30" width="177" height="30" as="geometry">
            <mxRectangle width="177" height="30" as="alternateBounds" />
          </mxGeometry>
        </mxCell>
        <mxCell id="CLAHwAtOvS05eVAsObR1-62" value="" style="shape=tableRow;horizontal=0;startSize=0;swimlaneHead=0;swimlaneBody=0;fillColor=none;collapsible=0;dropTarget=0;points=[[0,0.5],[1,0.5]];portConstraint=eastwest;top=0;left=0;right=0;bottom=0;" vertex="1" parent="CLAHwAtOvS05eVAsObR1-58">
          <mxGeometry y="60" width="207" height="30" as="geometry" />
        </mxCell>
        <mxCell id="CLAHwAtOvS05eVAsObR1-63" value="" style="shape=partialRectangle;connectable=0;fillColor=none;top=0;left=0;bottom=0;right=0;editable=1;overflow=hidden;whiteSpace=wrap;html=1;" vertex="1" parent="CLAHwAtOvS05eVAsObR1-62">
          <mxGeometry width="30" height="30" as="geometry">
            <mxRectangle width="30" height="30" as="alternateBounds" />
          </mxGeometry>
        </mxCell>
        <mxCell id="CLAHwAtOvS05eVAsObR1-64" value="clave (VARCHAR(128))" style="shape=partialRectangle;connectable=0;fillColor=none;top=0;left=0;bottom=0;right=0;align=left;spacingLeft=6;overflow=hidden;whiteSpace=wrap;html=1;" vertex="1" parent="CLAHwAtOvS05eVAsObR1-62">
          <mxGeometry x="30" width="177" height="30" as="geometry">
            <mxRectangle width="177" height="30" as="alternateBounds" />
          </mxGeometry>
        </mxCell>
        <mxCell id="CLAHwAtOvS05eVAsObR1-65" value="" style="shape=tableRow;horizontal=0;startSize=0;swimlaneHead=0;swimlaneBody=0;fillColor=none;collapsible=0;dropTarget=0;points=[[0,0.5],[1,0.5]];portConstraint=eastwest;top=0;left=0;right=0;bottom=0;" vertex="1" parent="CLAHwAtOvS05eVAsObR1-58">
          <mxGeometry y="90" width="207" height="30" as="geometry" />
        </mxCell>
        <mxCell id="CLAHwAtOvS05eVAsObR1-66" value="" style="shape=partialRectangle;connectable=0;fillColor=none;top=0;left=0;bottom=0;right=0;editable=1;overflow=hidden;whiteSpace=wrap;html=1;" vertex="1" parent="CLAHwAtOvS05eVAsObR1-65">
          <mxGeometry width="30" height="30" as="geometry">
            <mxRectangle width="30" height="30" as="alternateBounds" />
          </mxGeometry>
        </mxCell>
        <mxCell id="CLAHwAtOvS05eVAsObR1-67" value="nombre (VARCHAR(150))" style="shape=partialRectangle;connectable=0;fillColor=none;top=0;left=0;bottom=0;right=0;align=left;spacingLeft=6;overflow=hidden;whiteSpace=wrap;html=1;" vertex="1" parent="CLAHwAtOvS05eVAsObR1-65">
          <mxGeometry x="30" width="177" height="30" as="geometry">
            <mxRectangle width="177" height="30" as="alternateBounds" />
          </mxGeometry>
        </mxCell>
        <mxCell id="CLAHwAtOvS05eVAsObR1-68" value="" style="shape=tableRow;horizontal=0;startSize=0;swimlaneHead=0;swimlaneBody=0;fillColor=none;collapsible=0;dropTarget=0;points=[[0,0.5],[1,0.5]];portConstraint=eastwest;top=0;left=0;right=0;bottom=0;" vertex="1" parent="CLAHwAtOvS05eVAsObR1-58">
          <mxGeometry y="120" width="207" height="30" as="geometry" />
        </mxCell>
        <mxCell id="CLAHwAtOvS05eVAsObR1-69" value="" style="shape=partialRectangle;connectable=0;fillColor=none;top=0;left=0;bottom=0;right=0;editable=1;overflow=hidden;whiteSpace=wrap;html=1;" vertex="1" parent="CLAHwAtOvS05eVAsObR1-68">
          <mxGeometry width="30" height="30" as="geometry">
            <mxRectangle width="30" height="30" as="alternateBounds" />
          </mxGeometry>
        </mxCell>
        <mxCell id="CLAHwAtOvS05eVAsObR1-70" value="apellido (VARCHAR(150))" style="shape=partialRectangle;connectable=0;fillColor=none;top=0;left=0;bottom=0;right=0;align=left;spacingLeft=6;overflow=hidden;whiteSpace=wrap;html=1;" vertex="1" parent="CLAHwAtOvS05eVAsObR1-68">
          <mxGeometry x="30" width="177" height="30" as="geometry">
            <mxRectangle width="177" height="30" as="alternateBounds" />
          </mxGeometry>
        </mxCell>
        <mxCell id="CLAHwAtOvS05eVAsObR1-71" value="" style="shape=tableRow;horizontal=0;startSize=0;swimlaneHead=0;swimlaneBody=0;fillColor=none;collapsible=0;dropTarget=0;points=[[0,0.5],[1,0.5]];portConstraint=eastwest;top=0;left=0;right=0;bottom=0;" vertex="1" parent="CLAHwAtOvS05eVAsObR1-58">
          <mxGeometry y="150" width="207" height="30" as="geometry" />
        </mxCell>
        <mxCell id="CLAHwAtOvS05eVAsObR1-72" value="" style="shape=partialRectangle;connectable=0;fillColor=none;top=0;left=0;bottom=0;right=0;editable=1;overflow=hidden;whiteSpace=wrap;html=1;" vertex="1" parent="CLAHwAtOvS05eVAsObR1-71">
          <mxGeometry width="30" height="30" as="geometry">
            <mxRectangle width="30" height="30" as="alternateBounds" />
          </mxGeometry>
        </mxCell>
        <mxCell id="CLAHwAtOvS05eVAsObR1-73" value="rol (VARCHAR(50))" style="shape=partialRectangle;connectable=0;fillColor=none;top=0;left=0;bottom=0;right=0;align=left;spacingLeft=6;overflow=hidden;whiteSpace=wrap;html=1;" vertex="1" parent="CLAHwAtOvS05eVAsObR1-71">
          <mxGeometry x="30" width="177" height="30" as="geometry">
            <mxRectangle width="177" height="30" as="alternateBounds" />
          </mxGeometry>
        </mxCell>
        <mxCell id="CLAHwAtOvS05eVAsObR1-77" value="" style="shape=tableRow;horizontal=0;startSize=0;swimlaneHead=0;swimlaneBody=0;fillColor=none;collapsible=0;dropTarget=0;points=[[0,0.5],[1,0.5]];portConstraint=eastwest;top=0;left=0;right=0;bottom=0;" vertex="1" parent="CLAHwAtOvS05eVAsObR1-58">
          <mxGeometry y="180" width="207" height="30" as="geometry" />
        </mxCell>
        <mxCell id="CLAHwAtOvS05eVAsObR1-78" value="" style="shape=partialRectangle;connectable=0;fillColor=none;top=0;left=0;bottom=0;right=0;editable=1;overflow=hidden;whiteSpace=wrap;html=1;" vertex="1" parent="CLAHwAtOvS05eVAsObR1-77">
          <mxGeometry width="30" height="30" as="geometry">
            <mxRectangle width="30" height="30" as="alternateBounds" />
          </mxGeometry>
        </mxCell>
        <mxCell id="CLAHwAtOvS05eVAsObR1-79" value="foto (VARCHAR(100))" style="shape=partialRectangle;connectable=0;fillColor=none;top=0;left=0;bottom=0;right=0;align=left;spacingLeft=6;overflow=hidden;whiteSpace=wrap;html=1;" vertex="1" parent="CLAHwAtOvS05eVAsObR1-77">
          <mxGeometry x="30" width="177" height="30" as="geometry">
            <mxRectangle width="177" height="30" as="alternateBounds" />
          </mxGeometry>
        </mxCell>
        <mxCell id="CLAHwAtOvS05eVAsObR1-74" value="" style="shape=tableRow;horizontal=0;startSize=0;swimlaneHead=0;swimlaneBody=0;fillColor=none;collapsible=0;dropTarget=0;points=[[0,0.5],[1,0.5]];portConstraint=eastwest;top=0;left=0;right=0;bottom=0;" vertex="1" parent="CLAHwAtOvS05eVAsObR1-58">
          <mxGeometry y="210" width="207" height="30" as="geometry" />
        </mxCell>
        <mxCell id="CLAHwAtOvS05eVAsObR1-75" value="" style="shape=partialRectangle;connectable=0;fillColor=none;top=0;left=0;bottom=0;right=0;editable=1;overflow=hidden;whiteSpace=wrap;html=1;" vertex="1" parent="CLAHwAtOvS05eVAsObR1-74">
          <mxGeometry width="30" height="30" as="geometry">
            <mxRectangle width="30" height="30" as="alternateBounds" />
          </mxGeometry>
        </mxCell>
        <mxCell id="CLAHwAtOvS05eVAsObR1-76" value="estado (TINYINT(1))" style="shape=partialRectangle;connectable=0;fillColor=none;top=0;left=0;bottom=0;right=0;align=left;spacingLeft=6;overflow=hidden;whiteSpace=wrap;html=1;" vertex="1" parent="CLAHwAtOvS05eVAsObR1-74">
          <mxGeometry x="30" width="177" height="30" as="geometry">
            <mxRectangle width="177" height="30" as="alternateBounds" />
          </mxGeometry>
        </mxCell>
        <mxCell id="CLAHwAtOvS05eVAsObR1-80" style="edgeStyle=orthogonalEdgeStyle;rounded=0;orthogonalLoop=1;jettySize=auto;html=1;exitX=1;exitY=0.5;exitDx=0;exitDy=0;entryX=0;entryY=0.5;entryDx=0;entryDy=0;endArrow=ERoneToMany;endFill=0;startArrow=ERmandOne;startFill=0;" edge="1" parent="1" source="m9yIBbVPw-Hx9zCX_0sa-38" target="CLAHwAtOvS05eVAsObR1-14">
          <mxGeometry relative="1" as="geometry">
            <mxPoint x="531" y="400" as="sourcePoint" />
            <mxPoint x="578" y="550" as="targetPoint" />
          </mxGeometry>
        </mxCell>
        <mxCell id="CLAHwAtOvS05eVAsObR1-81" style="edgeStyle=orthogonalEdgeStyle;rounded=0;orthogonalLoop=1;jettySize=auto;html=1;entryX=1;entryY=0.5;entryDx=0;entryDy=0;endArrow=ERoneToMany;endFill=0;startArrow=ERmandOne;startFill=0;exitX=1;exitY=0.5;exitDx=0;exitDy=0;" edge="1" parent="1" source="CLAHwAtOvS05eVAsObR1-27" target="CLAHwAtOvS05eVAsObR1-23">
          <mxGeometry relative="1" as="geometry">
            <mxPoint x="691" y="550" as="sourcePoint" />
            <mxPoint x="691" y="450" as="targetPoint" />
          </mxGeometry>
        </mxCell>
        <mxCell id="CLAHwAtOvS05eVAsObR1-82" style="edgeStyle=orthogonalEdgeStyle;rounded=0;orthogonalLoop=1;jettySize=auto;html=1;exitX=1;exitY=0.5;exitDx=0;exitDy=0;entryX=0;entryY=0.5;entryDx=0;entryDy=0;endArrow=ERoneToMany;endFill=0;startArrow=ERmandOne;startFill=0;" edge="1" parent="1" source="CLAHwAtOvS05eVAsObR1-59" target="CLAHwAtOvS05eVAsObR1-42">
          <mxGeometry relative="1" as="geometry">
            <mxPoint x="751" y="680" as="sourcePoint" />
            <mxPoint x="791" y="740" as="targetPoint" />
          </mxGeometry>
        </mxCell>
        <mxCell id="CLAHwAtOvS05eVAsObR1-83" style="edgeStyle=orthogonalEdgeStyle;rounded=0;orthogonalLoop=1;jettySize=auto;html=1;exitX=0;exitY=0.5;exitDx=0;exitDy=0;entryX=1;entryY=0.5;entryDx=0;entryDy=0;endArrow=ERoneToMany;endFill=0;startArrow=ERmandOne;startFill=0;" edge="1" parent="1" source="CLAHwAtOvS05eVAsObR1-59" target="CLAHwAtOvS05eVAsObR1-55">
          <mxGeometry relative="1" as="geometry">
            <mxPoint x="198" y="630" as="sourcePoint" />
            <mxPoint x="238" y="690" as="targetPoint" />
          </mxGeometry>
        </mxCell>
        <mxCell id="AF9in8n4YQkXq9pwGjrP-1" value="&lt;font style=&quot;font-size: 24px;&quot;&gt;&lt;b&gt;Diagrama Fisico&lt;/b&gt;&lt;/font&gt;" style="text;html=1;align=center;verticalAlign=middle;whiteSpace=wrap;rounded=0;" vertex="1" parent="1">
          <mxGeometry x="314" y="50" width="200" height="30" as="geometry" />
        </mxCell>
      </root>
    </mxGraphModel>
  </diagram>
</mxfile>
